<?xml version="1.0" encoding="UTF-8" standalone="no"?>
<!-- Created with Inkscape (http://www.inkscape.org/) -->

<svg
   width="441.60294"
   height="828.72601"
   viewBox="0 0 116.84089 219.26755"
   version="1.1"
   id="svg5"
   xml:space="preserve"
   inkscape:version="1.2 (dc2aeda, 2022-05-15)"
   sodipodi:docname="shirt4.svg"
   inkscape:export-filename="../exports/brows/brows3.svg"
   inkscape:export-xdpi="96"
   inkscape:export-ydpi="96"
   xmlns:inkscape="http://www.inkscape.org/namespaces/inkscape"
   xmlns:sodipodi="http://sodipodi.sourceforge.net/DTD/sodipodi-0.dtd"
   xmlns="http://www.w3.org/2000/svg"
   xmlns:svg="http://www.w3.org/2000/svg"><sodipodi:namedview
     id="namedview7"
     pagecolor="#ffffff"
     bordercolor="#000000"
     borderopacity="0.25"
     inkscape:showpageshadow="2"
     inkscape:pageopacity="0.0"
     inkscape:pagecheckerboard="0"
     inkscape:deskcolor="#d1d1d1"
     inkscape:document-units="mm"
     showgrid="false"
     showguides="true"
     inkscape:zoom="1.024464"
     inkscape:cx="220.60316"
     inkscape:cy="414.36301"
     inkscape:window-width="1920"
     inkscape:window-height="1027"
     inkscape:window-x="0"
     inkscape:window-y="1717"
     inkscape:window-maximized="0"
     inkscape:current-layer="layer12" /><defs
     id="defs2"><inkscape:path-effect
       effect="powerstroke"
       id="path-effect3843"
       is_visible="true"
       lpeversion="1"
       offset_points="0.3782253,0.50055445"
       not_jump="true"
       sort_points="true"
       interpolator_type="CentripetalCatmullRom"
       interpolator_beta="0.75"
       start_linecap_type="round"
       linejoin_type="spiro"
       miter_limit="4"
       scale_width="1"
       end_linecap_type="round" /><inkscape:path-effect
       effect="simplify"
       id="path-effect3841"
       is_visible="true"
       lpeversion="1"
       steps="1"
       threshold="0.0034615385"
       smooth_angles="0"
       helper_size="0"
       simplify_individual_paths="false"
       simplify_just_coalesce="false"
       step="1" /><inkscape:path-effect
       effect="simplify"
       id="path-effect3834"
       is_visible="true"
       lpeversion="1"
       steps="1"
       threshold="0.000625"
       smooth_angles="360"
       helper_size="0"
       simplify_individual_paths="false"
       simplify_just_coalesce="false" /><inkscape:path-effect
       effect="powerstroke"
       id="path-effect3717"
       is_visible="true"
       lpeversion="1"
       offset_points="0.17037562,0.74304937"
       not_jump="true"
       sort_points="true"
       interpolator_type="CentripetalCatmullRom"
       interpolator_beta="0.75"
       start_linecap_type="round"
       linejoin_type="spiro"
       miter_limit="4"
       scale_width="1"
       end_linecap_type="round" /><inkscape:path-effect
       effect="simplify"
       id="path-effect3715"
       is_visible="true"
       lpeversion="1"
       steps="1"
       threshold="0.018461538"
       smooth_angles="0"
       helper_size="0"
       simplify_individual_paths="false"
       simplify_just_coalesce="false"
       step="1" /><inkscape:path-effect
       effect="powerstroke"
       id="path-effect3706"
       is_visible="true"
       lpeversion="1"
       offset_points="0.90041848,0.82251988"
       not_jump="true"
       sort_points="true"
       interpolator_type="CentripetalCatmullRom"
       interpolator_beta="0.75"
       start_linecap_type="round"
       linejoin_type="spiro"
       miter_limit="4"
       scale_width="1"
       end_linecap_type="round" /><inkscape:path-effect
       effect="simplify"
       id="path-effect3704"
       is_visible="true"
       lpeversion="1"
       steps="1"
       threshold="0.018461538"
       smooth_angles="0"
       helper_size="0"
       simplify_individual_paths="false"
       simplify_just_coalesce="false"
       step="1" /><inkscape:path-effect
       effect="powerstroke"
       id="path-effect3697"
       is_visible="true"
       lpeversion="1"
       offset_points="0.58693253,0.81854635"
       not_jump="true"
       sort_points="true"
       interpolator_type="CentripetalCatmullRom"
       interpolator_beta="0.75"
       start_linecap_type="round"
       linejoin_type="spiro"
       miter_limit="4"
       scale_width="1"
       end_linecap_type="round" /><inkscape:path-effect
       effect="simplify"
       id="path-effect3695"
       is_visible="true"
       lpeversion="1"
       steps="1"
       threshold="0.018461538"
       smooth_angles="0"
       helper_size="0"
       simplify_individual_paths="false"
       simplify_just_coalesce="false"
       step="1" /><inkscape:path-effect
       effect="powerstroke"
       id="path-effect3688"
       is_visible="true"
       lpeversion="1"
       offset_points="0.92083796,1.097948"
       not_jump="true"
       sort_points="true"
       interpolator_type="CentripetalCatmullRom"
       interpolator_beta="0.75"
       start_linecap_type="round"
       linejoin_type="spiro"
       miter_limit="4"
       scale_width="1"
       end_linecap_type="round" /><inkscape:path-effect
       effect="simplify"
       id="path-effect3686"
       is_visible="true"
       lpeversion="1"
       steps="1"
       threshold="0.0047745358"
       smooth_angles="0"
       helper_size="0"
       simplify_individual_paths="false"
       simplify_just_coalesce="false"
       step="1" /><inkscape:path-effect
       effect="powerstroke"
       id="path-effect3681"
       is_visible="true"
       lpeversion="1"
       offset_points="0.90839082,1.4994832 | 6.5878714,1.1544139"
       not_jump="true"
       sort_points="true"
       interpolator_type="CentripetalCatmullRom"
       interpolator_beta="0.75"
       start_linecap_type="round"
       linejoin_type="spiro"
       miter_limit="4"
       scale_width="1"
       end_linecap_type="round" /><inkscape:path-effect
       effect="simplify"
       id="path-effect3679"
       is_visible="true"
       lpeversion="1"
       steps="1"
       threshold="0.0047745358"
       smooth_angles="0"
       helper_size="0"
       simplify_individual_paths="false"
       simplify_just_coalesce="false"
       step="1" /></defs><g
     inkscape:groupmode="layer"
     id="layer10"
     inkscape:label="right arm"
     style="display:none"
     transform="translate(-49.971902,-28.846966)"><path
       style="display:inline;fill:#ffccaa;fill-opacity:1;stroke:none;stroke-width:0.853943;stroke-linecap:round;stroke-dasharray:none;stroke-opacity:1"
       d="m 98.345666,146.01013 c 0,0 -9.239685,6.98971 -14.214899,18.42741 -4.975215,11.4377 4.975214,6.7779 4.975214,6.7779 z"
       id="path3601" /><path
       style="display:inline;fill:#ffccaa;fill-opacity:1;stroke:none;stroke-width:1.33543;stroke-linecap:round;stroke-dasharray:none;stroke-opacity:1"
       d="m 85.434755,182.93928 -19.825139,-24.17255 6.488228,-5.78778 21.266967,16.34199 c 0,0 2.523199,9.87331 -0.360459,11.5756 -2.883654,1.70228 -7.569597,2.04274 -7.569597,2.04274 z"
       id="path3605" /><g
       id="g3923"
       inkscape:label="hand"><path
         style="display:inline;fill:#ffccaa;fill-opacity:1;stroke:none;stroke-width:1.02826;stroke-linecap:round;stroke-dasharray:none;stroke-opacity:1"
         d="m 70.345898,158.92384 c 0,0 -3.446449,1.76003 -7.262156,0.162 -3.815703,-1.59805 -7.789656,-8.18195 -7.789656,-8.18195 l 16.45856,-11.1073 c 0,0 5.116913,3.97353 3.587092,13.70588 -1.529816,9.73234 -4.99384,5.42137 -4.99384,5.42137 z"
         id="path3607"
         sodipodi:nodetypes="csccsc"
         inkscape:label="path3607" /><rect
         style="fill:#ffccaa;fill-opacity:1;stroke:none;stroke-width:0.55171;stroke-linecap:round;stroke-dasharray:none;stroke-opacity:1"
         id="rect3907"
         width="4.3742704"
         height="13.575322"
         x="-35.005455"
         y="146.10091"
         rx="0.76297313"
         ry="3.0309143"
         inkscape:transform-center-y="-3.9352168"
         transform="rotate(-32.692025)"
         inkscape:transform-center-x="2.525591" /><rect
         style="fill:#ffccaa;fill-opacity:1;stroke:none;stroke-width:0.572764;stroke-linecap:round;stroke-dasharray:none;stroke-opacity:1"
         id="rect3909"
         width="4.3742704"
         height="14.631181"
         x="-30.668602"
         y="144.90381"
         rx="0.76297313"
         ry="3.2666521"
         inkscape:transform-center-x="2.5104808"
         inkscape:transform-center-y="-4.1252923"
         transform="rotate(-33.112869)" /><rect
         style="fill:#ffccaa;fill-opacity:1;stroke:none;stroke-width:0.586778;stroke-linecap:round;stroke-dasharray:none;stroke-opacity:1"
         id="rect3911"
         width="4.5875859"
         height="14.6419"
         x="-15.266447"
         y="145.19078"
         rx="0.80018026"
         ry="3.2690454"
         transform="rotate(-29.471364)" /><rect
         style="fill:#ffccaa;fill-opacity:1;stroke:none;stroke-width:0.586778;stroke-linecap:round;stroke-dasharray:none;stroke-opacity:1"
         id="rect3913"
         width="4.5875859"
         height="14.6419"
         x="-0.56695563"
         y="146.19992"
         rx="0.80018026"
         ry="3.2690454"
         transform="rotate(-25.990676)" /><path
         style="fill:#ffccaa;fill-opacity:1;stroke:none;stroke-width:1.15;stroke-linecap:round;stroke-dasharray:none;stroke-opacity:1"
         d="m 69.485614,150.63068 c 0,0 0.02939,-3.54535 1.978356,-4.47575 1.948964,-0.93041 3.713804,-2.09977 3.713804,-2.09977 l 2.256492,-1.6434 c 0,0 2.330921,-0.55824 3.085044,-0.56802 0.754119,-0.01 1.666891,2.90483 1.666891,2.90483 0,0 -1.709996,0.74628 -2.785353,1.57483 -1.07536,0.82855 -1.713917,1.60619 -2.366185,2.48958 -0.652268,0.8834 0.440706,4.89689 -1.747226,6.01142 -2.187934,1.11452 -5.801823,-4.19372 -5.801823,-4.19372 z"
         id="path3915"
         sodipodi:nodetypes="csccscsssc" /></g></g><g
     inkscape:groupmode="layer"
     id="layer9"
     inkscape:label="body"
     style="display:none"
     transform="translate(-49.971902,-28.846966)"><path
       style="opacity:1;fill:#ffccaa;fill-opacity:1;stroke:none;stroke-width:1.151;stroke-dasharray:none;stroke-opacity:1"
       d="m 99.09985,139.97665 0.150837,4.0726 c 0,0 0.301675,1.50837 -0.603348,2.56423 -0.905021,1.05586 -6.184313,7.54184 -9.804398,17.94959 -3.620087,10.40775 -4.826783,32.58077 -4.525107,36.35169 0.301672,3.77093 7.994356,22.77638 8.446865,25.79312 0.452511,3.01673 1.055859,13.28602 1.206696,14.34188 0.150839,1.05586 10.407745,0 10.407745,0 0,0 0.60335,-8.15757 0.45251,-12.23017 -0.15084,-4.07259 -0.45251,-11.76528 -0.45251,-11.76528 0,0 0,-1.96088 1.05586,-1.50836 1.05586,0.45251 5.18022,4.18055 6.78766,10.70942 0.57016,2.31578 1.35753,14.41854 1.35753,14.41854 h 9.65357 l -1.96088,-36.44073 c 0,0 9.00657,-13.56797 -2.41339,-43.2902 -1.80565,-4.69948 -9.05022,-14.48034 -9.20106,-15.83787 -0.15083,-1.35753 -0.30167,-5.43013 -0.30167,-5.43013 0,0 -3.92176,1.05586 -10.25691,0.30167 z"
       id="path5527"
       sodipodi:nodetypes="ccssssscscsscccsscc"
       inkscape:label="main body" /><path
       style="display:inline;opacity:1;fill:none;fill-opacity:1;stroke:#c47474;stroke-width:1.151;stroke-dasharray:none;stroke-opacity:1"
       d="m 109.51674,145.45095 c -0.15083,-1.35753 -0.15998,-5.77597 -0.15998,-5.77597 0,0 -3.92176,1.05586 -10.25691,0.30167 l 0.150837,4.0726 c 0,0 0.301675,1.50837 -0.603348,2.56423 -0.905021,1.05586 -6.184313,7.54184 -9.804398,17.94959 -3.620087,10.40775 -4.826783,32.58077 -4.525107,36.35169 0.301672,3.77093 7.994356,22.77638 8.446865,25.79312 0.452511,3.01673 1.055859,13.28602 1.206696,14.34188 0.150839,1.05586 10.407745,0 10.407745,0 0,0 0.60335,-8.15757 0.45251,-12.23017 -0.15084,-4.07259 -0.45251,-11.76528 -0.45251,-11.76528 0,0 0,-1.96088 1.05586,-1.50836 1.05586,0.45251 5.18022,4.18055 6.78766,10.70942 0.57016,2.31578 1.35753,14.41854 1.35753,14.41854 h 9.65357 l -1.96088,-36.44073 c 0,0 9.00657,-13.56797 -2.41339,-43.2902 -1.80565,-4.69948 -5.43013,-8.89937 -5.58097,-10.2569"
       id="path8030"
       sodipodi:nodetypes="ccccssssscscsscccsc"
       inkscape:label="main body" /></g><g
     inkscape:groupmode="layer"
     id="layer14"
     inkscape:label="shoes"
     style="display:none"
     transform="translate(-49.971902,-28.846966)"><path
       style="opacity:1;fill:#000000;fill-opacity:0;stroke:#000000;stroke-width:0.61;stroke-linecap:round;stroke-dasharray:none;stroke-opacity:1"
       d="m 83.979148,245.11473 c 0,0 -0.566338,1.83152 0.301674,2.17149 0.868013,0.33996 8.767419,0.5837 11.457747,0.50995 3.403969,-0.0933 8.705071,0.20666 9.573101,-0.64326 0.868,-0.84991 -0.25191,-2.33978 -0.30636,-3.45633 -0.0535,-1.09624 -3.36427,1.54985 -7.009912,1.54985 -3.645644,0 -14.01625,-0.1317 -14.01625,-0.1317 z"
       id="path6238"
       sodipodi:nodetypes="csssssc" /><path
       style="opacity:1;fill:#008080;fill-opacity:1;stroke:#004d4d;stroke-width:0.3;stroke-linecap:round;stroke-dasharray:none;stroke-opacity:1"
       d="m 84.10722,242.52668 c 0,0 7.464896,-2.37975 8.159306,-3.56964 0.694409,-1.18988 0.347203,-2.88972 0.347203,-2.88972 0,0 2.430433,-0.33996 3.645647,0.50995 1.215218,0.84993 2.083228,3.22968 2.083228,3.22968 0,0 5.004346,0.20976 6.770486,-1.18987 1.10706,-0.87733 0.58662,6.32606 0.58662,6.32606 0,0 -6.315494,1.49316 -12.738775,1.49316 -6.423284,0 -9.28148,0.37665 -9.548125,-0.84991 0,0 -0.158852,-2.31311 0.69441,-3.05971 z"
       id="path6235"
       sodipodi:nodetypes="cscscscscc" /><path
       style="opacity:1;fill:#ffffff;fill-opacity:1;stroke:#000000;stroke-width:0.61;stroke-linecap:round;stroke-dasharray:none;stroke-opacity:1"
       d="m 102.5,245.11473 c 0,0 -0.56634,1.83152 0.30167,2.17149 0.86802,0.33996 8.76742,0.5837 11.45776,0.50995 3.40396,-0.0933 8.70507,0.20666 9.5731,-0.64326 0.868,-0.84991 -0.25191,-2.33978 -0.30636,-3.45633 -0.0535,-1.09624 -3.36427,1.54985 -7.00992,1.54985 -3.64564,0 -14.01625,-0.1317 -14.01625,-0.1317 z"
       id="path6575"
       sodipodi:nodetypes="csssssc" /><path
       style="opacity:1;fill:#008080;fill-opacity:1;stroke:#004d4d;stroke-width:0.31;stroke-linecap:round;stroke-dasharray:none;stroke-opacity:1"
       d="m 102.62807,242.52668 c 0,0 7.4649,-2.37975 8.15931,-3.56964 0.69441,-1.18988 0.3472,-2.88972 0.3472,-2.88972 0,0 2.43044,-0.33996 3.64565,0.50995 1.21522,0.84993 2.08323,3.22968 2.08323,3.22968 0,0 5.00435,0.20976 6.77049,-1.18987 1.10706,-0.87733 0.58662,6.32606 0.58662,6.32606 0,0 -6.3155,1.49316 -12.73878,1.49316 -6.42329,0 -9.28149,0.37665 -9.54813,-0.84991 0,0 -0.15885,-2.31311 0.69441,-3.05971 z"
       id="path6577"
       sodipodi:nodetypes="cscscscscc" /></g><g
     inkscape:groupmode="layer"
     id="layer11"
     inkscape:label="shorts"
     style="display:none"
     transform="translate(-49.971902,-28.846966)"><path
       style="display:inline;opacity:1;fill:#f9f9f9;fill-opacity:1;stroke:none;stroke-width:1.151;stroke-dasharray:none;stroke-opacity:1"
       d="m 84.166997,201.51811 c 0.301672,3.77093 4.958802,20.09168 5.128453,23.83224 0.16754,3.694 0.603348,3.39003 0.754185,8.21682 0.03332,1.06606 15.234525,0.3367 15.234525,0.3367 0,0 0,-0.86084 -0.15084,-4.93344 -0.15084,-4.07259 -0.91417,-12.02278 -0.91417,-12.02278 0,0 0.31974,-1.51508 1.26918,-0.86841 1.05586,0.71915 3.05021,2.75139 4.97762,9.65356 0.64145,2.29705 0.39918,7.68856 0.39918,7.68856 h 12.82114 l -1.96088,-31.45073 z"
       id="path4195"
       sodipodi:nodetypes="csscscsscccc"
       inkscape:label="main body" /><path
       style="display:inline;opacity:1;fill:none;fill-opacity:1;stroke:#c5c5c5;stroke-width:0.651;stroke-dasharray:none;stroke-opacity:1"
       d="m 84.317834,201.51811 c 0.301672,3.77093 5.313643,21.60576 5.580964,25.34061 0.318377,4.44818 0.452511,2.26254 0,6.78766 -0.106128,1.06129 15.598682,0.0975 15.598682,0.0975 0,0 0,-0.75418 -0.15084,-4.82678 -0.15084,-4.07259 -0.75418,-11.91612 -0.75418,-11.91612 0,0 -0.0533,-1.48092 1.00253,-1.0284 1.05586,0.45251 3.21019,2.69806 4.81763,9.22693 0.57016,2.31578 0.45251,8.22185 0.45251,8.22185 h 12.82114 l -1.96088,-31.45073 z"
       id="path4200"
       sodipodi:nodetypes="csscscsscccc"
       inkscape:label="main body" /></g><g
     inkscape:groupmode="layer"
     id="layer3"
     inkscape:label="left arm - at rest"
     style="display:none"
     transform="translate(-49.971902,-28.846966)"><path
       style="display:inline;opacity:1;fill:#ffccaa;fill-opacity:1;stroke:none;stroke-width:1.151;stroke-dasharray:none;stroke-opacity:1"
       d="m 109.35677,145.40679 c 0,0 11.01109,5.12845 15.83787,13.27364 4.82678,8.1452 5.12845,12.6703 5.7318,15.98871 0.60335,3.31842 1.2067,29.26237 1.2067,29.26237 l -9.35189,0.30167 c 0,0 -0.90502,-28.05566 -1.50837,-30.77072 -0.60334,-2.71507 -2.0373,-9.03938 -5.43013,-15.38538 -6.29163,-11.76795 -6.48598,-12.67029 -6.48598,-12.67029 z"
       id="path6353"
       inkscape:label="arm"
       sodipodi:nodetypes="cssccssc" /><path
       style="display:inline;opacity:1;fill:none;fill-opacity:1;stroke:#c47474;stroke-width:1.151;stroke-linecap:round;stroke-dasharray:none;stroke-opacity:1"
       d="m 109.50761,145.40678 c 0,0 10.86025,5.12846 15.68703,13.27365 4.82678,8.1452 5.12845,12.6703 5.7318,15.98871 0.60335,3.31842 1.2067,22.91237 1.2067,22.91237 L 120.66953,197.129 c 0,0 0.20629,-3.5818 0.40564,-7.97538 0.28279,-6.23256 0.55159,-14.09869 0.19771,-15.69116 -0.60335,-2.71507 -1.50837,-9.3519 -5.43013,-15.38538"
       id="path413"
       inkscape:label="arm"
       sodipodi:nodetypes="cssccssc" /><path
       style="opacity:1;fill:#ffccaa;fill-opacity:1;stroke:none;stroke-width:0.702734;stroke-dasharray:none;stroke-opacity:1"
       d="m 120.3738,190.96852 c 0,0 -1.63187,3.49245 -3.05975,5.32184 -1.42788,1.82938 0.20398,5.32184 -0.40797,7.48384 -0.61195,2.16199 3.46772,1.33046 3.46772,1.33046 0,0 0.41859,0.29608 0.0107,1.62654 -0.40796,1.33046 -2.29459,2.01166 -1.19204,3.12172 0.99868,1.00547 1.61615,2.05052 2.44888,2.01547 0.83273,-0.0351 5.99042,-1.16951 9.75827,-2.64114 3.1846,-3.46737 1.42788,-17.03585 0.93385,-18.21525 -1.35244,0.0816 -11.95958,-0.0435 -11.95958,-0.0435 z"
       id="path6424"
       sodipodi:nodetypes="csscsszcccc" /><path
       style="opacity:1;fill:none;fill-opacity:1;stroke:#c47474;stroke-width:1.04157;stroke-linecap:round;stroke-dasharray:none;stroke-opacity:1"
       d="m 121.07714,190.753 c 0,0 -2.33521,3.70797 -3.76309,5.53736 -1.42788,1.82938 0.20398,5.32184 -0.40797,7.48384 -0.61195,2.16199 3.46772,1.33046 3.46772,1.33046 0,0 0.41859,0.29608 0.0107,1.62654 -0.40796,1.33046 -2.29459,2.01166 -1.19204,3.12172 0.99868,1.00547 1.61615,2.05052 2.44888,2.01547 0.83273,-0.0351 6.52154,-0.80055 9.75827,-2.64114 3.07078,-1.62254 0.8976,-17.20153 0.40357,-18.38093"
       id="path1741"
       sodipodi:nodetypes="csscsszcc" /><path
       style="display:inline;fill:#c47474;fill-opacity:1;stroke:none;stroke-width:0.899331;stroke-linecap:round;stroke-dasharray:none;stroke-opacity:1"
       d="m 123.08312,212.14237 1.33213,-2.84106 c 0,0 0.24979,-0.25068 0.33305,-3.17529 0.062,-2.17811 -0.16652,-4.26159 -0.16652,-4.26159 0,0 1.13157,0.60441 0.66606,6.01635 -0.31593,3.6731 -1.86422,3.39333 -2.16472,4.26159 z"
       id="path3329"
       sodipodi:nodetypes="ccscsc" /><path
       style="display:inline;fill:#c47474;fill-opacity:1;stroke:none;stroke-width:0.833754;stroke-linecap:round;stroke-dasharray:none;stroke-opacity:1"
       d="m 129.26926,210.90126 1.14495,-2.84106 c 0,0 0.21468,-0.25068 0.28624,-3.17529 0.0533,-2.1781 -0.14312,-4.26158 -0.14312,-4.26158 0,0 0.97256,0.60441 0.57247,6.01635 -0.27154,3.67309 -1.60227,3.39332 -1.86054,4.26158 z"
       id="path3595"
       sodipodi:nodetypes="ccscsc" /><path
       style="display:inline;fill:#c47474;fill-opacity:1;stroke:none;stroke-width:1.08753;stroke-linecap:round;stroke-dasharray:none;stroke-opacity:1"
       d="m 119.35009,205.84957 1.91984,-2.28318 c 0,0 0.21332,-1.88602 0.21332,-3.73128 0,-2.4876 0,-3.79806 0,-3.79806 0,0 0.27635,-0.90993 0.31997,5.37451 0.0292,4.21226 -2.06818,3.44688 -2.45313,4.43801 z"
       id="path3597"
       sodipodi:nodetypes="ccscsc" /><path
       style="display:inline;fill:#c47474;fill-opacity:1;stroke:none;stroke-width:0.833754;stroke-linecap:round;stroke-dasharray:none;stroke-opacity:1"
       d="m 126.70947,211.75452 1.14495,-2.84106 c 0,0 0.21468,-0.25068 0.28624,-3.17529 0.0533,-2.1781 -0.14312,-4.26158 -0.14312,-4.26158 0,0 0.97256,0.60441 0.57247,6.01635 -0.27154,3.67309 -1.60227,3.39332 -1.86054,4.26158 z"
       id="path3599"
       sodipodi:nodetypes="ccscsc" /></g><g
     inkscape:groupmode="layer"
     id="layer12"
     inkscape:label="shirt"
     style="display:inline"
     transform="translate(-49.971902,-28.846966)"><path
       style="opacity:1;fill:#008080;fill-opacity:1;stroke:none;stroke-width:1.151;stroke-dasharray:none;stroke-opacity:1"
       d="m 98.664069,145.27581 c 0,0 -3.016204,0.91931 -5.613125,3.14328 -3.430356,2.93771 -6.932854,7.60752 -9.189372,12.99942 -0.679431,1.62348 2.037479,3.13869 3.311443,3.73719 -3.620085,10.40775 -4.970039,33.80132 -4.668363,37.57224 11.180902,-0.26142 24.364898,0.0164 34.131298,-0.23899 -0.22655,-2.66874 -0.8157,-4.0999 -0.0171,-5.91591 0.4614,-1.04918 1.50556,-2.01265 3.80415,-5.7235 0.19774,-3.76402 0.73857,-11.23564 0.50536,-16.78555 -0.43708,-2.80415 -0.71658,-4.10579 -1.01055,-5.15541 2.69351,-0.0828 8.34826,0.003 11.9814,0.0539 -0.67035,-7.52346 -7.03226,-14.07514 -11.48675,-18.20261 -4.45449,-4.12748 -8.8201,-5.19555 -10.32744,-5.60144 -3.35772,0.25034 -8.78074,0.15665 -11.420991,0.11737 z"
       id="path4203"
       sodipodi:nodetypes="csscccscccczccc"
       inkscape:label="main body" /><path
       style="fill:#006e5f;fill-opacity:1;stroke:none;stroke-width:1.15;stroke-linecap:round;stroke-dasharray:none;stroke-opacity:1"
       d="m 87.139424,165.10628 c 0,0 0.533289,-2.13316 2.506459,-5.01292 1.97317,-2.87976 3.306392,-4.63961 4.37297,-5.86618 1.066578,-1.22656 1.013248,-0.79993 1.013248,-0.79993 0,0 -2.416098,2.94568 -4.79692,6.62036 -2.583835,3.98803 -3.095757,5.05867 -3.095757,5.05867 z"
       id="path4407"
       sodipodi:nodetypes="csscsc" /><path
       style="fill:#006e5f;fill-opacity:1;stroke:none;stroke-width:1.15;stroke-linecap:round;stroke-dasharray:none;stroke-opacity:1"
       d="m 121.54258,168.83283 -2.92616,-0.10666 c 0,0 0.41369,-4.79313 -0.22626,-7.1396 -0.63995,-2.34647 -2.76553,-6.56102 -4.75432,-8.60046 -1.89846,-1.94682 -2.24278,-1.80982 -2.24278,-1.80982 0,0 1.88546,1.81005 2.4511,2.63965 0.56564,0.82961 3.31841,4.93991 4.14801,7.88123 0.8296,2.94132 0.22626,7.39101 0.22626,7.39101 z"
       id="path5984"
       sodipodi:nodetypes="ccsscsscc" /><g
       fill="none"
       fill-rule="evenodd"
       id="g44690"
       transform="matrix(0.13949937,0,-0.02471361,0.14015785,80.871472,152.72944)"
       inkscape:label="mail gnome"
       style="display:none;opacity:0.75"><path
         d="M 164.5,0 C 222.214,0 269,46.786 269,104.5 c 0,5.267 -0.39,10.443 -1.142,15.5 H 61.142 A 105.344,105.344 0 0 1 60,104.5 C 60,46.786 106.786,0 164.5,0 Z"
         fill="url(#a)"
         id="path44664" /><path
         d="M 124,70 124.329,69.988 124,69.8 Z m 0,-63 h 80 v 40 l 20,12 v 68 H 104 V 59 l 20,-12 z"
         fill="#ffffff"
         id="path44666"
         sodipodi:nodetypes="ccccccccccccc" /><path
         d="M 124,47 104,58.6 V 127 H 224 V 58.6 L 204,47"
         stroke="#051d39"
         stroke-linecap="round"
         stroke-width="3"
         id="path44668" /><path
         d="M 124,69.8 V 7 h 80 V 69.4 M 104,58.6 224,127 m 0,-68.4 -61.6,33.2"
         stroke="#051d39"
         stroke-linecap="round"
         stroke-width="3"
         id="path44670" /><path
         d="m 164.052,40.013 c -3.314,0 -6.11,2.684 -6.11,6.09 0,3.407 2.692,6.09 6.11,6.09 3.314,0 6.11,-2.683 6.11,-6.09 0,-3.406 -2.796,-6.09 -6.11,-6.09 z M 154.524,46 c 0,-5.161 4.246,-9.394 9.424,-9.394 5.178,0 9.424,4.233 9.424,9.394 0,0.31 0,0.723 -0.103,1.032 -0.104,0.93 0.621,1.652 1.553,1.652 1.553,0 1.76,-1.961 1.76,-2.684 0,-6.916 -5.695,-12.594 -12.634,-12.594 -6.938,0 -12.634,5.678 -12.634,12.594 0,6.916 5.696,12.594 12.634,12.594 3.728,0 7.042,-1.549 9.32,-4.13 l 2.59,2.168 C 173.06,59.935 168.712,62 164.052,62 155.146,62 148,54.877 148,46 c 0,-8.774 7.146,-16 16.052,-16 8.802,0 15.948,7.226 15.948,16 0,3.51 -1.657,6.4 -5.074,6.4 -1.45,0 -2.382,-0.723 -2.9,-1.445 -1.657,2.684 -4.66,4.439 -8.078,4.439 -5.178,0 -9.424,-4.13 -9.424,-9.394 z m 9.528,-2.787 a 2.78,2.78 0 0 1 2.796,2.787 2.78,2.78 0 0 1 -2.796,2.787 2.78,2.78 0 0 1 -2.796,-2.787 2.78,2.78 0 0 1 2.796,-2.787 z"
         fill="#c02428"
         fill-rule="nonzero"
         id="path44672" /><g
         fill-rule="nonzero"
         opacity="0.2"
         transform="translate(0,125)"
         id="g44678" /><g
         transform="translate(113,107)"
         id="g44688"><path
           d="M 22,3 V 3.212 C 22,6.388 24.612,9 27.788,9 30.965,9 33.576,6.388 33.576,3.212 V 3"
           stroke="#051d39"
           stroke-linecap="round"
           stroke-width="3"
           id="path44680" /><g
           fill="#051d39"
           fill-rule="nonzero"
           id="g44686"><circle
             cx="3"
             cy="3"
             r="3"
             id="circle44682" /><circle
             cx="52"
             cy="3"
             r="3"
             id="circle44684" /></g></g><text
         xml:space="preserve"
         style="font-style:normal;font-variant:normal;font-weight:bold;font-stretch:normal;font-size:25.2294px;line-height:1.4;font-family:'Noto Sans Armenian';-inkscape-font-specification:'Noto Sans Armenian Bold';text-align:center;text-anchor:middle;display:inline;opacity:0.75;fill:#ffffff;fill-opacity:1;stroke:none;stroke-width:28.6066;stroke-dasharray:none;stroke-opacity:1"
         x="166.6944"
         y="164.9931"
         id="text44864"
         transform="scale(1.0023574,0.99764816)"><tspan
           sodipodi:role="line"
           id="tspan44862"
           style="font-style:normal;font-variant:normal;font-weight:bold;font-stretch:normal;font-size:25.2294px;font-family:'Noto Sans Armenian';-inkscape-font-specification:'Noto Sans Armenian Bold';text-align:center;text-anchor:middle;fill:#ffffff;fill-opacity:1;stroke-width:28.6066"
           x="166.6944"
           y="164.9931">Long</tspan><tspan
           sodipodi:role="line"
           style="font-style:normal;font-variant:normal;font-weight:bold;font-stretch:normal;font-size:25.2294px;font-family:'Noto Sans Armenian';-inkscape-font-specification:'Noto Sans Armenian Bold';text-align:center;text-anchor:middle;fill:#ffffff;fill-opacity:1;stroke-width:28.6066"
           x="166.6944"
           y="200.37621"
           id="tspan44866">Live</tspan><tspan
           sodipodi:role="line"
           style="font-style:normal;font-variant:normal;font-weight:bold;font-stretch:normal;font-size:25.2294px;font-family:'Noto Sans Armenian';-inkscape-font-specification:'Noto Sans Armenian Bold';text-align:center;text-anchor:middle;fill:#ffffff;fill-opacity:1;stroke-width:28.6066"
           x="166.6944"
           y="235.75931"
           id="tspan44870">Mail GNOME!</tspan></text></g><path
       d="m 101.40382,161.6569 c -1.737944,0 -3.39382,1.37033 -3.690748,3.05429 -0.296936,1.68401 0.875689,3.05433 2.613628,3.05433 1.73799,0 3.39388,-1.37032 3.69081,-3.05433 0.29693,-1.68396 -0.8757,-3.05429 -2.61369,-3.05429 z m -5.445778,3.05429 c 0.462867,-2.62505 3.036431,-4.75481 5.745628,-4.75481 2.70924,0 4.53174,2.12976 4.06887,4.75481 -0.032,0.18156 -0.0768,0.34676 -0.12554,0.5118 -0.11691,0.46229 0.16415,0.80901 0.64114,0.80901 0.80083,0 1.06362,-1.00709 1.12184,-1.33729 0.62007,-3.51661 -1.80993,-6.35629 -5.43927,-6.35629 -3.629307,0 -7.060728,2.83968 -7.680801,6.35629 -0.620066,3.51657 1.809929,6.35626 5.439231,6.35626 1.92541,0 3.78899,-0.80896 5.22293,-2.08025 l 1.15396,1.08965 c -1.80757,1.65099 -4.20608,2.69112 -6.676738,2.69112 -4.600542,0 -7.677508,-3.61565 -6.894417,-8.05678 0.786006,-4.45766 5.152181,-8.05678 9.735675,-8.05678 4.60055,0 7.67751,3.61565 6.89442,8.05678 -0.3144,1.78305 -1.45658,3.23592 -3.21161,3.23592 -0.78379,0 -1.1827,-0.34675 -1.38838,-0.72644 -1.1077,1.35381 -2.79843,2.24534 -4.570513,2.24534 -2.677782,0.0152 -4.500509,-2.11325 -4.037635,-4.73834 z m 5.154668,-1.40333 c 0.80084,0 1.33773,0.62737 1.20381,1.38685 -0.13682,0.77596 -0.89495,1.40333 -1.69579,1.40333 -0.800835,0 -1.33768,-0.62737 -1.200857,-1.40333 0.149617,-0.75948 0.892007,-1.38685 1.692837,-1.38685 z m 0.29111,-1.65096 c -1.737944,0 -3.39382,1.37033 -3.690748,3.05429 -0.296936,1.68401 0.875689,3.05433 2.613628,3.05433 1.73799,0 3.39388,-1.37032 3.69081,-3.05433 0.29693,-1.68396 -0.8757,-3.05429 -2.61369,-3.05429 z m -5.445778,3.05429 c 0.462867,-2.62505 3.036431,-4.75481 5.745628,-4.75481 2.70924,0 4.53174,2.12976 4.06887,4.75481 -0.032,0.18156 -0.0768,0.34676 -0.12554,0.5118 -0.11691,0.46229 0.16415,0.80901 0.64114,0.80901 0.80083,0 1.06362,-1.00709 1.12184,-1.33729 0.62007,-3.51661 -1.80993,-6.35629 -5.43927,-6.35629 -3.629307,0 -7.060728,2.83968 -7.680801,6.35629 -0.620066,3.51657 1.809929,6.35626 5.439231,6.35626 1.92541,0 3.78899,-0.80896 5.22293,-2.08025 l 1.15396,1.08965 c -1.80757,1.65099 -4.20608,2.69112 -6.676738,2.69112 -4.600542,0 -7.677508,-3.61565 -6.894417,-8.05678 0.786006,-4.45766 5.152181,-8.05678 9.735675,-8.05678 4.60055,0 7.67751,3.61565 6.89442,8.05678 -0.3144,1.78305 -1.45658,3.23592 -3.21161,3.23592 -0.78379,0 -1.1827,-0.34675 -1.38838,-0.72644 -1.1077,1.35381 -2.79843,2.24534 -4.570513,2.24534 -2.677782,0.0152 -4.500509,-2.11325 -4.037635,-4.73834 z m 5.154668,-1.40333 c 0.80084,0 1.33773,0.62737 1.20381,1.38685 -0.13682,0.77596 -0.89495,1.40333 -1.69579,1.40333 -0.800835,0 -1.33768,-0.62737 -1.200857,-1.40333 0.149617,-0.75948 0.892007,-1.38685 1.692837,-1.38685 z m 0.29111,-1.65096 c -1.737944,0 -3.39382,1.37033 -3.690748,3.05429 -0.296936,1.68401 0.875689,3.05433 2.613628,3.05433 1.73799,0 3.39388,-1.37032 3.69081,-3.05433 0.29693,-1.68396 -0.8757,-3.05429 -2.61369,-3.05429 z m -5.445778,3.05429 c 0.462867,-2.62505 3.036431,-4.75481 5.745628,-4.75481 2.70924,0 4.53174,2.12976 4.06887,4.75481 -0.032,0.18156 -0.0768,0.34676 -0.12554,0.5118 -0.11691,0.46229 0.16415,0.80901 0.64114,0.80901 0.80083,0 1.06362,-1.00709 1.12184,-1.33729 0.62007,-3.51661 -1.80993,-6.35629 -5.43927,-6.35629 -3.629307,0 -7.060728,2.83968 -7.680801,6.35629 -0.620066,3.51657 1.809929,6.35626 5.439231,6.35626 1.92541,0 3.78899,-0.80896 5.22293,-2.08025 l 1.15396,1.08965 c -1.80757,1.65099 -4.20608,2.69112 -6.676738,2.69112 -4.600542,0 -7.677508,-3.61565 -6.894417,-8.05678 0.786006,-4.45766 5.152181,-8.05678 9.735675,-8.05678 4.60055,0 7.67751,3.61565 6.89442,8.05678 -0.3144,1.78305 -1.45658,3.23592 -3.21161,3.23592 -0.78379,0 -1.1827,-0.34675 -1.38838,-0.72644 -1.1077,1.35381 -2.79843,2.24534 -4.570513,2.24534 -2.677782,0.0152 -4.500509,-2.11325 -4.037635,-4.73834 z m 5.154668,-1.40333 c 0.80084,0 1.33773,0.62737 1.20381,1.38685 -0.13682,0.77596 -0.89495,1.40333 -1.69579,1.40333 -0.800835,0 -1.33768,-0.62737 -1.200857,-1.40333 0.149617,-0.75948 0.892007,-1.38685 1.692837,-1.38685 z"
       fill="#c02126"
       id="path45630"
       style="display:none;stroke-width:1.02311"
       inkscape:label="MG Logo" /><g
       style="fill:none"
       id="g47096"
       transform="matrix(0.61162991,0,-0.10420467,0.59097405,95.154757,157.56893)"><path
         d="M 10.7906,24.541 21.5813,19.0885 V 16.3792 L 10.7906,21.8317 2.39792,17.5909 v -2.7554 l 8.39268,4.2409 10.7907,-5.4526 V 5.44932 L 10.7906,10.9018 2.39792,6.66099 V 3.93292 L 10.7906,8.17315 21.5813,2.72125 V 0.0113525 L 10.7906,5.46386 0,0.0113525 V 8.15861 L 10.7906,13.6111 19.1833,9.37028 V 12.1262 L 10.7906,16.3671 0,10.9146 v 8.1739 z"
         fill="#25a877"
         id="path47087" /></g></g><g
     inkscape:groupmode="layer"
     id="layer2"
     inkscape:label="head"
     style="display:none"
     transform="translate(-49.971902,-28.846966)"><ellipse
       style="display:inline;opacity:1;fill:#ffccaa;stroke-width:0.127845"
       id="path664"
       cx="-150.81413"
       cy="88.845947"
       rx="15.998669"
       ry="16.318644"
       transform="scale(-1,1)"
       inkscape:label="ear" /><ellipse
       style="display:inline;opacity:1;fill:#ffccaa;stroke-width:0.12656"
       id="ellipse1346"
       cx="-66.661125"
       cy="88.419319"
       rx="15.678696"
       ry="16.318644"
       transform="scale(-1,1)"
       inkscape:label="ear" /><path
       style="opacity:1;fill:#c47474;fill-opacity:1;stroke:none;stroke-width:1.151;stroke-dasharray:none;stroke-opacity:1"
       id="path2924"
       d="m 145.09261,103.75261 c -0.0124,-2.15404 -0.27472,-4.062958 -0.30992,-6.61037 0.0493,-1.617151 -0.0376,-2.438151 -1e-4,-3.875442 0.0375,-1.437291 -0.004,-3.104078 0.81211,-4.361311 0.81575,-1.257233 1.01507,-1.715272 2.58048,-2.295744 1.5654,-0.580473 2.39444,-0.634375 3.93495,-0.408471 1.54051,0.225904 2.76973,0.331521 2.76973,0.331521 0,0 -1.22014,-0.872357 -2.14973,-1.252905 -1.20085,-0.436248 -3.10361,-0.467382 -4.30762,0.0027 -1.20401,0.470065 -2.1346,0.911586 -3.48157,2.07455 -1.34698,1.162963 -3.28616,16.107172 -0.80825,16.608792 z"
       sodipodi:nodetypes="cczzzzcczzcc"
       inkscape:label="ear line" /><path
       style="opacity:1;fill:#c47474;fill-opacity:1;stroke:none;stroke-width:1.151;stroke-dasharray:none;stroke-opacity:1"
       id="path2930"
       d="m 62.872357,87.724137 c 0,0 -0.06257,-2.356793 -2.104746,-4.126205 -2.042176,-1.769412 -2.675323,-1.099559 -3.830906,-0.661416 -1.155583,0.438143 -1.719265,1.440718 -1.739984,2.460636 v 0 c 0.325378,-0.919912 0.956758,-1.526133 1.673874,-1.744299 0.717116,-0.218165 2.38145,-0.467497 3.446917,0.532889 1.065466,1.000386 2.554845,3.538395 2.554845,3.538395 z"
       sodipodi:nodetypes="czzcszzc"
       inkscape:label="ear line" /><path
       style="display:inline;opacity:1;fill:#ffccaa;fill-opacity:1;stroke:none;stroke-width:1.151;stroke-dasharray:none;stroke-opacity:1"
       d="m 63.04983,55.809656 c 0,0 -0.301676,-3.016738 -0.301676,9.351889 v 39.820945 c 0,0 0,24.13391 25.943949,32.58077 25.943947,8.44687 43.139357,-6.33515 43.139357,-6.33515 0,0 13.57532,-8.74854 12.06695,-28.05566 -0.14813,-1.89605 -0.23807,-3.713542 -0.27982,-5.449626 -0.38342,-15.94216 3.29656,-25.019434 3.29656,-25.019434 0,0 2.1635,-14.592239 -1.81005,-20.815494 C 141.13156,45.664641 135.75322,41.329314 125.19464,39.217597 105.05961,35.19059 85.37369,36.502533 73.306739,44.044377 63.938735,49.899379 63.04983,55.809656 63.04983,55.809656 Z"
       id="path3209"
       sodipodi:nodetypes="cscscssczssc"
       inkscape:label="flat" /><path
       style="display:inline;opacity:1;fill:none;fill-opacity:1;stroke:#c47474;stroke-width:1.151;stroke-dasharray:none;stroke-opacity:1"
       d="m 147.12847,73.108582 c 0,0 0.74348,-16.5058 -3.23007,-22.729055 -3.97354,-6.223255 -8.14518,-9.050213 -18.70376,-11.16193 C 105.05961,35.19059 85.638873,36.944433 73.306739,44.044377 61.827018,50.653564 63.04983,55.960493 63.04983,55.960493 c 0,0 -0.301676,-3.167575 -0.301676,9.201052 v 39.820945 c 0,0 0,24.13391 25.943949,32.58077 25.943947,8.44687 42.926037,-6.17516 42.926037,-6.17516 0,0 12.24672,-7.26107 12.90055,-27.67087"
       id="path3345"
       sodipodi:nodetypes="czsscscscc"
       inkscape:label="outline" /></g><g
     inkscape:groupmode="layer"
     id="layer4"
     inkscape:label="eyes"
     style="display:none"
     transform="translate(-49.971902,-28.846966)"><g
       id="g216"
       inkscape:label="eyes1"
       style="display:none"><circle
         style="opacity:1;fill:#ffffff;fill-opacity:1;stroke:#000000;stroke-width:1.151;stroke-dasharray:none;stroke-opacity:1"
         id="path1351"
         cx="78.820114"
         cy="80.953278"
         r="10.352757" /><circle
         style="opacity:1;fill:#ffffff;fill-opacity:1;stroke:#000000;stroke-width:1.151;stroke-dasharray:none;stroke-opacity:1"
         id="circle1407"
         cx="114.87045"
         cy="80.526649"
         r="10.352757" /><ellipse
         style="opacity:1;fill:#280b0b;fill-opacity:1;stroke:none;stroke-width:0.392958;stroke-dasharray:none;stroke-opacity:1"
         id="circle1409"
         cx="116.60464"
         cy="80.127701"
         rx="2.8035214"
         ry="2.8035212" /><ellipse
         style="opacity:1;fill:#280b0b;fill-opacity:1;stroke:none;stroke-width:0.392958;stroke-dasharray:none;stroke-opacity:1"
         id="ellipse1411"
         cx="80.340981"
         cy="79.811852"
         rx="2.8035214"
         ry="2.8035212" /></g><g
       id="g226"
       inkscape:label="eye2"
       style="display:none"><circle
         style="opacity:1;fill:#ffffff;fill-opacity:1;stroke:none;stroke-width:1.151;stroke-dasharray:none;stroke-opacity:1"
         id="circle220"
         cx="114.87045"
         cy="80.526649"
         r="10.352757" /><path
         id="circle389"
         style="opacity:1;fill:none;fill-opacity:1;stroke:#000000;stroke-width:1.151;stroke-dasharray:none;stroke-opacity:1"
         d="m 105.48312,76.161148 a 10.352757,10.352757 0 0 1 9.38733,-5.987256 10.352757,10.352757 0 0 1 10.35276,10.352757 v 0 a 10.352757,10.352757 0 0 1 -9.92869,10.344069" /><rect
         style="fill:#280b0b;fill-opacity:1;stroke:none;stroke-width:1.151;stroke-opacity:1"
         id="rect1093"
         width="2.1331561"
         height="4.9062591"
         x="106.08408"
         y="-106.05837"
         ry="1.066578"
         transform="rotate(75.57659)" /><rect
         style="fill:#280b0b;fill-opacity:1;stroke:none;stroke-width:1.151;stroke-opacity:1"
         id="rect1147"
         width="2.1331561"
         height="4.9062591"
         x="124.04126"
         y="-77.763451"
         ry="1.066578"
         transform="rotate(61.601055)" /><circle
         style="opacity:1;fill:#ffffff;fill-opacity:1;stroke:none;stroke-width:1.151;stroke-dasharray:none;stroke-opacity:1"
         id="circle1151"
         cx="-80.457497"
         cy="80.526649"
         r="10.352757"
         transform="scale(-1,1)" /><path
         id="path1153"
         style="opacity:1;fill:none;fill-opacity:1;stroke:#000000;stroke-width:1.151;stroke-dasharray:none;stroke-opacity:1"
         d="M 89.844776,76.161148 A 10.352757,10.352757 0 0 0 80.457452,70.173892 10.352757,10.352757 0 0 0 70.104698,80.526649 v 0 a 10.352757,10.352757 0 0 0 9.928684,10.344069" /><rect
         style="fill:#280b0b;fill-opacity:1;stroke:none;stroke-width:1.151;stroke-opacity:1"
         id="rect1155"
         width="2.1331561"
         height="4.9062591"
         x="57.430706"
         y="83.113121"
         ry="1.066578"
         transform="matrix(-0.24908561,0.96848147,0.96848147,0.24908561,0,0)" /><rect
         style="fill:#280b0b;fill-opacity:1;stroke:none;stroke-width:1.151;stroke-opacity:1"
         id="rect1157"
         width="2.1331561"
         height="4.9062591"
         x="31.141739"
         y="94.058212"
         ry="1.066578"
         transform="matrix(-0.47560801,0.87965733,0.87965733,0.47560801,0,0)" /><rect
         style="fill:#280b0b;fill-opacity:1;stroke:none;stroke-width:1.151;stroke-opacity:1"
         id="rect1159"
         width="2.1331561"
         height="4.9062591"
         x="5.7157922"
         y="98.333229"
         ry="1.066578"
         transform="matrix(-0.65276078,0.7575641,0.7575641,0.65276078,0,0)" /><rect
         style="fill:#280b0b;fill-opacity:1;stroke:none;stroke-width:1.151;stroke-opacity:1"
         id="rect1149"
         width="2.1331561"
         height="4.9062591"
         x="133.2182"
         y="-49.640232"
         ry="1.066578"
         transform="rotate(49.249922)" /><ellipse
         style="opacity:1;fill:#280b0b;fill-opacity:1;stroke:none;stroke-width:0.392958;stroke-dasharray:none;stroke-opacity:1"
         id="ellipse222"
         cx="116.60464"
         cy="80.127701"
         rx="2.8035214"
         ry="2.8035212" /><ellipse
         style="opacity:1;fill:#280b0b;fill-opacity:1;stroke:none;stroke-width:0.392958;stroke-dasharray:none;stroke-opacity:1"
         id="ellipse224"
         cx="80.340981"
         cy="79.811852"
         rx="2.8035214"
         ry="2.8035212" /></g><g
       id="g1201"
       inkscape:label="eye3"
       style="display:none"><path
         style="display:inline;fill:#ffffff;fill-opacity:1;stroke:none;stroke-width:1.151;stroke-opacity:1"
         d="m 104.95128,74.693441 c 0,0 1.42971,-2.602533 5.01291,-3.199734 3.51971,-0.586619 9.81253,-0.319974 9.81253,-0.319974 0,0 5.22622,0.106657 5.33288,4.37297 0.10666,4.266311 -0.7466,6.186152 -1.81318,7.146073 -1.06658,0.959919 -4.69294,3.839681 -6.61278,3.946337 -1.91985,0.106659 -11.41239,0 -11.73236,-11.945672 z"
         id="path1414"
         sodipodi:nodetypes="cscsssc" /><path
         id="path1179"
         style="opacity:1;fill:none;fill-opacity:1;stroke:#000000;stroke-width:1.151;stroke-dasharray:none;stroke-opacity:1"
         d="m 104.84318,74.807575 c 1.69821,-3.651741 6.31995,-3.640784 10.34725,-3.640784 5.71767,-2e-6 10.03278,-0.591146 10.03278,5.126525 v 0 c 0,5.552709 -4.38064,10.11662 -9.92869,10.344069"
         sodipodi:nodetypes="csssc" /><rect
         style="fill:#280b0b;fill-opacity:1;stroke:none;stroke-width:1.151;stroke-opacity:1"
         id="rect1181"
         width="2.1331561"
         height="4.9062591"
         x="78.460396"
         y="-128.285"
         ry="1.066578"
         transform="rotate(88.73064)" /><rect
         style="fill:#280b0b;fill-opacity:1;stroke:none;stroke-width:1.151;stroke-opacity:1"
         id="rect1183"
         width="2.1331561"
         height="4.9062591"
         x="117.66485"
         y="-88.123062"
         ry="1.066578"
         transform="rotate(65.713147)" /><rect
         style="fill:#280b0b;fill-opacity:1;stroke:none;stroke-width:1.151;stroke-opacity:1"
         id="rect1195"
         width="2.1331561"
         height="4.9062591"
         x="139.65503"
         y="-23.220896"
         ry="1.066578"
         transform="rotate(37.874462)" /><ellipse
         style="opacity:1;fill:#280b0b;fill-opacity:1;stroke:none;stroke-width:0.392958;stroke-dasharray:none;stroke-opacity:1"
         id="ellipse1197"
         cx="116.60464"
         cy="77.481873"
         rx="2.8035214"
         ry="2.8035212" /><ellipse
         style="opacity:1;fill:#280b0b;fill-opacity:1;stroke:none;stroke-width:0.392958;stroke-dasharray:none;stroke-opacity:1"
         id="ellipse1199"
         cx="80.340981"
         cy="79.811852"
         rx="2.8035214"
         ry="2.8035212" /><path
         style="display:inline;fill:#ffffff;fill-opacity:1;stroke:none;stroke-width:1.151;stroke-opacity:1"
         d="m 92.343916,74.693441 c 0,0 -1.42971,-2.602533 -5.012907,-3.199734 -3.519707,-0.586619 -9.812524,-0.319974 -9.812524,-0.319974 0,0 -5.226217,0.106657 -5.332877,4.37297 -0.10666,4.266311 0.7466,6.186152 1.813177,7.146073 1.06658,0.959919 4.69294,3.839681 6.612777,3.946337 1.91985,0.106659 11.412384,0 11.732354,-11.945672 z"
         id="path1902"
         sodipodi:nodetypes="cscsssc" /><path
         id="path1904"
         style="opacity:1;fill:none;fill-opacity:1;stroke:#000000;stroke-width:1.151;stroke-dasharray:none;stroke-opacity:1"
         d="m 92.452016,74.807575 c -1.69821,-3.651741 -6.319947,-3.640784 -10.347244,-3.640784 -5.717667,-2e-6 -10.032774,-0.591146 -10.032774,5.126525 v 0 c 0,5.552709 4.380637,10.11662 9.928684,10.344069"
         sodipodi:nodetypes="csssc" /><rect
         style="fill:#280b0b;fill-opacity:1;stroke:none;stroke-width:1.151;stroke-opacity:1"
         id="rect1906"
         width="2.1331561"
         height="4.9062591"
         x="74.089783"
         y="68.9618"
         ry="1.066578"
         transform="matrix(-0.0221527,0.9997546,0.9997546,0.0221527,0,0)" /><rect
         style="fill:#280b0b;fill-opacity:1;stroke:none;stroke-width:1.151;stroke-opacity:1"
         id="rect1908"
         width="2.1331561"
         height="4.9062591"
         x="36.516304"
         y="91.711075"
         ry="1.066578"
         transform="matrix(-0.41130522,0.91149768,0.91149768,0.41130522,0,0)" /><rect
         style="fill:#280b0b;fill-opacity:1;stroke:none;stroke-width:1.151;stroke-opacity:1"
         id="rect1910"
         width="2.1331561"
         height="4.9062591"
         x="-16.081486"
         y="97.90522"
         ry="1.066578"
         transform="matrix(-0.78935781,0.61393343,0.61393343,0.78935781,0,0)" /><ellipse
         style="opacity:1;fill:#280b0b;fill-opacity:1;stroke:none;stroke-width:0.392958;stroke-dasharray:none;stroke-opacity:1"
         id="ellipse1912"
         cx="-83.865578"
         cy="77.481873"
         rx="2.8035214"
         ry="2.8035212"
         transform="scale(-1,1)" /></g><g
       id="g4363"
       inkscape:label="eye4"
       style="display:inline"><g
         id="g4977"
         inkscape:label="left eye"><rect
           style="display:inline;fill:#ffffff;fill-opacity:1;stroke-width:1.151"
           id="rect4631"
           width="20.158323"
           height="5.33289"
           x="105.27126"
           y="71.247414"
           ry="2.666445" /><ellipse
           style="opacity:1;fill:#280b0b;fill-opacity:1;stroke:none;stroke-width:0.392958;stroke-dasharray:none;stroke-opacity:1"
           id="ellipse4629"
           cx="-117.99608"
           cy="73.748848"
           rx="2.8035214"
           ry="2.8035212"
           transform="scale(-1,1)" /><rect
           style="display:inline;fill:#000000;fill-opacity:1;stroke-width:1.151"
           id="rect4417"
           width="21.864849"
           height="1.066578"
           x="104.20468"
           y="70.714119"
           ry="0.53328902" /><rect
           style="display:inline;fill:#000000;fill-opacity:1;stroke-width:1.151"
           id="rect4627"
           width="21.864849"
           height="1.066578"
           x="104.20468"
           y="76.005783"
           ry="0.53328902" /></g><g
         id="g4987"
         inkscape:label="right eye"
         transform="translate(-35.45417)"><rect
           style="display:inline;fill:#ffffff;fill-opacity:1;stroke-width:1.151"
           id="rect4979"
           width="20.158323"
           height="5.33289"
           x="105.27126"
           y="71.247414"
           ry="2.666445" /><ellipse
           style="opacity:1;fill:#280b0b;fill-opacity:1;stroke:none;stroke-width:0.392958;stroke-dasharray:none;stroke-opacity:1"
           id="ellipse4981"
           cx="-117.99608"
           cy="73.748848"
           rx="2.8035214"
           ry="2.8035212"
           transform="scale(-1,1)" /><rect
           style="display:inline;fill:#000000;fill-opacity:1;stroke-width:1.151"
           id="rect4983"
           width="21.864849"
           height="1.066578"
           x="104.20468"
           y="70.714119"
           ry="0.53328902" /><rect
           style="display:inline;fill:#000000;fill-opacity:1;stroke-width:1.151"
           id="rect4985"
           width="21.864849"
           height="1.066578"
           x="104.20468"
           y="76.005783"
           ry="0.53328902" /></g></g><g
       id="g12796"
       inkscape:label="eye5"
       style="display:none"><g
         id="g12801"
         inkscape:label="right eye"><path
           id="path12473"
           style="display:inline;fill:#ffffff;fill-opacity:1;stroke-width:1.48408"
           d="m 89.284566,73.057019 c -10e-7,3.661104 -4.181221,7.133124 -9.445917,7.133124 -5.264696,0 -9.445917,-3.572841 -9.445918,-7.233945 4.851792,0.199885 5.770108,-0.25425 18.891835,0.100823 z"
           sodipodi:nodetypes="csccc" /><path
           id="rect12320"
           style="fill:#000000;fill-opacity:1;stroke-width:1.42654"
           d="m 71.496243,71.343518 c 1.127449,0.305596 15.118622,0.794872 18.749468,1.756095 -6.886553,0.341223 -12.80593,0.103297 -18.525372,0.437224 -1.294735,-0.07306 -2.091385,0.200804 -2.026653,-0.983089 0.03095,-0.56608 0.524121,-1.459433 1.802557,-1.21023 z"
           sodipodi:nodetypes="cccsc" /><circle
           style="fill:#000000;fill-opacity:1;stroke-width:1.151"
           id="path12583"
           cx="82.918198"
           cy="75.571175"
           r="1.1199069" /></g><g
         id="g12809"
         inkscape:label="left eye"
         transform="matrix(-1,0,0,1,195.91908,0)"><path
           id="path12803"
           style="display:inline;fill:#ffffff;fill-opacity:1;stroke-width:1.48408"
           d="m 90.3429,73.057019 c -10e-7,3.661104 -4.181221,7.133124 -9.445917,7.133124 -5.264696,0 -9.445917,-3.572841 -9.445918,-7.233945 4.851792,0.199885 5.770108,-0.25425 18.891835,0.100823 z"
           sodipodi:nodetypes="csccc" /><path
           id="path12805"
           style="fill:#000000;fill-opacity:1;stroke-width:1.42654"
           d="m 72.554577,71.343518 c 1.127449,0.305596 15.118622,0.794872 18.749468,1.756095 -6.886553,0.341223 -12.80593,0.103297 -18.525372,0.437224 -1.294735,-0.07306 -2.091385,0.200804 -2.026653,-0.983089 0.03095,-0.56608 0.524121,-1.459433 1.802557,-1.21023 z"
           sodipodi:nodetypes="cccsc" /><circle
           style="fill:#000000;fill-opacity:1;stroke-width:1.151"
           id="circle12807"
           cx="78.684868"
           cy="75.571175"
           r="1.1199069" /></g></g><g
       id="g13853"
       inkscape:label="eye6"
       style="display:none"><g
         id="g13851"
         inkscape:label="left eye"
         transform="matrix(-1,0,0,1,195.91908,0)"><path
           id="rect13855"
           style="display:inline;fill:#ffffff;fill-opacity:1;stroke:#000000;stroke-width:0.854291;stroke-dasharray:none;stroke-opacity:1"
           d="m 112.46021,71.528029 c 2.82464,-0.954211 10.98406,-0.226256 10.98406,-0.226256 1.01003,0 1.82315,0.818547 1.82315,1.835308 -0.11792,4.46617 -3.26401,7.767612 -6.56094,8.787088 -3.29086,0.931128 -11.28763,-0.04807 -11.28763,-0.04807 0,0 -0.62214,-1.065401 -0.19975,-3.969663 0.42239,-2.904262 2.41648,-5.424196 5.24111,-6.378407 z"
           sodipodi:nodetypes="zsccczz"
           inkscape:label="rect13855"
           transform="matrix(-0.99999999,0,0,0.99999999,195.91908,1.2579721e-6)" /><path
           id="path13847"
           style="fill:#000000;fill-opacity:1;stroke-width:0.950154"
           d="m 70.287569,72.485445 c -1.101793,-1.017284 -1.745386,-0.89606 -3.617046,-0.918677 1.350639,-1.50053 2.427836,-1.209876 3.591253,-0.853035 0.842704,0.258472 1.564856,0.730572 1.187293,1.398305 -0.675523,1.028638 -0.05971,1.390691 -1.1615,0.373406 z"
           sodipodi:nodetypes="zcscz" /><circle
           style="fill:#000000;fill-opacity:1;stroke-width:1.151"
           id="circle13849"
           cx="78.684868"
           cy="76.100342"
           r="1.1199069" /></g><g
         id="g14024"
         inkscape:label="right eye"
         transform="translate(1.3451902)"><path
           id="path14018"
           style="display:inline;fill:#ffffff;fill-opacity:1;stroke:#000000;stroke-width:0.854291;stroke-dasharray:none;stroke-opacity:1"
           d="m 112.46021,71.528029 c 2.82464,-0.954211 10.98406,-0.226256 10.98406,-0.226256 1.01003,0 1.82315,0.818547 1.82315,1.835308 -0.11792,4.46617 -3.26401,7.767612 -6.56094,8.787088 -3.29086,0.931128 -11.28763,-0.04807 -11.28763,-0.04807 0,0 -0.62214,-1.065401 -0.19975,-3.969663 0.42239,-2.904262 2.41648,-5.424196 5.24111,-6.378407 z"
           sodipodi:nodetypes="zsccczz"
           inkscape:label="rect13855"
           transform="matrix(-0.99999999,0,0,0.99999999,195.91908,1.2579721e-6)" /><path
           id="path14020"
           style="fill:#000000;fill-opacity:1;stroke-width:0.950154"
           d="m 70.287569,72.485445 c -1.101793,-1.017284 -1.745386,-0.89606 -3.617046,-0.918677 1.350639,-1.50053 2.427836,-1.209876 3.591253,-0.853035 0.842704,0.258472 1.564856,0.730572 1.187293,1.398305 -0.675523,1.028638 -0.05971,1.390691 -1.1615,0.373406 z"
           sodipodi:nodetypes="zcscz" /><circle
           style="fill:#000000;fill-opacity:1;stroke-width:1.151"
           id="circle14022"
           cx="82.389046"
           cy="76.100342"
           r="1.1199069" /></g></g></g><g
     inkscape:groupmode="layer"
     id="layer6"
     inkscape:label="brows"
     style="display:none"
     transform="translate(-49.971902,-28.846966)"><g
       id="g2644"
       inkscape:label="brows1"
       style="display:none"><path
         style="display:inline;opacity:1;fill:#a05a2c;fill-opacity:1;stroke:none;stroke-width:1.465;stroke-dasharray:none;stroke-opacity:1"
         d="m 104.22831,59.128069 c -1.2067,2.413392 -0.14214,3.452258 0.75418,3.92176 1.58379,0.829601 5.08422,1.850834 10.33233,-2.262553 5.58097,-4.374272 8.7672,-3.620222 5.12845,-5.43013 -1.83691,-0.913677 -4.61845,-1.282663 -7.91894,-0.678765 -4.01569,0.734759 -6.86307,2.036297 -8.29602,4.449688 z"
         id="path1702"
         sodipodi:nodetypes="cssssc" /><path
         style="display:inline;opacity:1;fill:#a05a2c;fill-opacity:1;stroke:none;stroke-width:1.465;stroke-dasharray:none;stroke-opacity:1"
         d="m 88.798629,58.977232 c 1.2067,2.413392 0.14214,3.452258 -0.75418,3.92176 -1.58379,0.829601 -5.08422,1.850834 -10.33233,-2.262553 -5.58097,-4.374272 -8.7672,-3.620222 -5.12845,-5.43013 1.83691,-0.913677 4.61845,-1.282663 7.91894,-0.678765 4.01569,0.734759 6.86307,2.036297 8.29602,4.449688 z"
         id="path1801"
         sodipodi:nodetypes="cssssc" /></g><g
       id="g2650"
       inkscape:label="brows2"
       style="display:none"><path
         style="display:inline;opacity:1;fill:#a05a2c;fill-opacity:1;stroke:none;stroke-width:1.465;stroke-dasharray:none;stroke-opacity:1"
         d="m 111.06527,55.882902 c -2.46244,1.103177 -2.2967,2.581372 -1.9005,3.51242 0.70007,1.645149 0.0161,-0.07585 6.68288,0.06544 7.08936,0.150186 11.82283,7.480283 10.15353,3.774918 -0.84269,-1.870538 -2.76137,-3.91793 -5.69785,-5.541196 -3.5728,-1.975025 -6.60055,-2.771443 -9.23806,-1.811577 z"
         id="path2646"
         sodipodi:nodetypes="cssssc" /><path
         style="display:inline;opacity:1;fill:#a05a2c;fill-opacity:1;stroke:none;stroke-width:1.465;stroke-dasharray:none;stroke-opacity:1"
         d="m 85.047311,55.882902 c 2.462437,1.103177 2.296697,2.581372 1.9005,3.51242 -0.70007,1.645149 -0.0161,-0.07585 -6.682877,0.06544 -7.089357,0.150186 -11.822824,7.480283 -10.153524,3.774918 0.84269,-1.870538 2.761367,-3.91793 5.697847,-5.541196 3.572797,-1.975025 6.600544,-2.771443 9.238054,-1.811577 z"
         id="path2652"
         sodipodi:nodetypes="cssssc" /></g><g
       id="g4993"
       inkscape:label="brows3"
       transform="translate(0,5.2916667)"
       style="display:inline"><path
         style="display:inline;opacity:1;fill:#a05a2c;fill-opacity:1;stroke:none;stroke-width:1.465;stroke-dasharray:none;stroke-opacity:1"
         d="m 105.79815,59.739543 c -1.7039,2.092214 -0.89147,3.338202 -0.11908,3.991842 1.36478,1.154978 -0.0197,-0.07499 5.99927,-2.945147 6.40047,-3.052136 13.9234,1.36844 10.76685,-1.191323 -1.5935,-1.292219 -4.22766,-2.258821 -7.58041,-2.389101 -4.07928,-0.158516 -7.14194,0.490854 -9.06663,2.533733 z"
         id="path4989"
         sodipodi:nodetypes="cssssc" /><path
         style="display:inline;opacity:1;fill:#a05a2c;fill-opacity:1;stroke:none;stroke-width:1.465;stroke-dasharray:none;stroke-opacity:1"
         d="m 89.460458,60.014786 c 1.704321,2.091862 0.892149,3.338018 0.1199,3.991819 -1.364548,1.155258 0.01969,-0.075 -5.999875,-2.943914 -6.401097,-3.050818 -13.923122,1.371305 -10.767083,-1.189107 1.593224,-1.292546 4.227188,-2.259691 7.579911,-2.39066 4.079242,-0.159355 7.14203,0.489384 9.067145,2.531866 z"
         id="path4991"
         sodipodi:nodetypes="cssssc" /></g></g><g
     inkscape:groupmode="layer"
     id="layer13"
     inkscape:label="shadows"
     style="display:none"
     transform="translate(-49.971902,-28.846966)"
     sodipodi:insensitive="true"><path
       style="display:inline;opacity:1;fill:#b10000;fill-opacity:0.322449;stroke:none;stroke-width:1.8521;stroke-dasharray:none;stroke-opacity:1"
       d="m 91.983961,88.725256 c 0,0 -4.50338,7.555447 -5.564156,11.600564 -0.694099,2.64686 0.05009,7.21428 6.131024,8.17253 4.054774,0.63896 6.964914,0.5801 9.690571,0.18093 3.70855,-0.54311 5.83222,-3.30699 6.11227,-4.40425 0.46572,-1.82468 0.45344,-4.610575 -1.39116,-8.213727 -1.79007,-3.496621 -8.113062,-13.315361 -10.07246,-14.19216 -1.7025,-0.761837 -4.906089,6.856123 -4.906089,6.856123 z"
       id="path1540"
       sodipodi:nodetypes="csssssscc" /><path
       style="display:inline;fill:#b10000;fill-opacity:0.322449;stroke:none;stroke-width:1.15;stroke-linecap:round;stroke-dasharray:none;stroke-opacity:1"
       d="m 91.065963,116.71532 c 0,0 6.186283,2.7011 13.737577,-0.16911 4.57528,-1.73904 -2.33441,3.36168 -2.33441,3.36168 0,0 -5.202558,6.01111 -11.403167,-3.19257 z"
       id="path6118"
       sodipodi:nodetypes="cscc" /><path
       style="display:inline;fill:#b10000;fill-opacity:0.322449;stroke:none;stroke-width:1.15;stroke-linecap:round;stroke-dasharray:none;stroke-opacity:1"
       d="m 108.79112,140.50458 c -5.73181,0.60335 -9.125632,0.0754 -9.125632,0.0754 l 0.113128,2.3757 c 0,0 -0.490221,1.24441 1.923164,1.54608 2.41339,0.30168 6.82538,0.30167 7.16476,-1.54608"
       id="path6120"
       sodipodi:nodetypes="cccsc" /><path
       style="display:inline;fill:#b10000;fill-opacity:0.322449;stroke:none;stroke-width:1.15;stroke-linecap:round;stroke-dasharray:none;stroke-opacity:1"
       d="m 163.65805,94.574746 c -0.56145,-1.915267 -2.19509,-3.88497 -3.31841,-4.902203 -2.33946,-2.118529 -5.25316,-3.409056 -6.9385,-3.469248 -2.11172,-0.07542 -7.73007,-1.183248 -8.59771,5.279292 -0.60335,6.796259 0.30168,7.706315 0.30168,12.444043 0,0 5.1158,3.44255 13.42448,-0.90502 5.31215,-3.084381 5.68992,-6.531598 5.12846,-8.446864 z"
       id="path6135"
       sodipodi:nodetypes="zsscccz" /><path
       style="fill:#b10000;fill-opacity:0.322449;stroke:none;stroke-width:1.15;stroke-linecap:round;stroke-dasharray:none;stroke-opacity:1"
       d="m 56.413005,83.41281 c 2.337973,-1.810042 3.332635,-0.413804 4.525107,0.301676 1.131278,0.678765 1.282113,3.167574 1.282113,3.167574 l -0.07542,17.19541 c 0,0 -5.203873,-1.65921 -8.296029,-6.184315 -2.857736,-4.042063 -1.32674,-11.28706 2.564229,-14.480345 z"
       id="path6138"
       sodipodi:nodetypes="cscccc" /><path
       style="fill:#b10000;fill-opacity:0.322449;stroke:none;stroke-width:1.15;stroke-linecap:round;stroke-dasharray:none;stroke-opacity:1"
       d="m 74.127174,144.62798 c 0,0 -5.546206,2.55979 -4.906261,6.18615 0.639947,3.62637 -2.026497,-1.49321 4.906261,-6.18615 z"
       id="path6140" /><path
       style="fill:#b10000;fill-opacity:0.322449;stroke:none;stroke-width:1.15;stroke-linecap:round;stroke-dasharray:none;stroke-opacity:1"
       d="m 83.748464,162.01968 c -1.535658,1.00034 2.004409,3.0866 1.791094,5.8597 -0.213315,2.7731 -5.119574,8.37264 -6.452797,7.09275 -1.240649,-1.19102 2.732749,3.62064 4.906258,6.23947 0.413655,-4.58057 1.424262,-10.18313 3.14964,-16.052 -2.133155,-1.11989 -3.226788,-2.04806 -3.394195,-3.13992 z"
       id="path6131"
       sodipodi:nodetypes="cssccc" /><path
       style="fill:#b10000;fill-opacity:0.322449;stroke:none;stroke-width:0.906695;stroke-linecap:round;stroke-dasharray:none;stroke-opacity:1"
       d="m 120.82036,168.88027 c 0.32619,0.79508 0.52116,2.11502 0.75418,3.28274 l 8.37146,0.16816 c -0.0272,-0.58326 -0.55223,-2.63755 -0.75419,-3.43154 z"
       id="path6133"
       sodipodi:nodetypes="ccccc" /><path
       style="opacity:1;fill:#b10000;fill-opacity:0.321569;stroke:none;stroke-width:0.61;stroke-linecap:round;stroke-dasharray:none;stroke-opacity:1"
       d="m 94.122232,235.34472 10.030658,0.0377 0.0754,-1.20669 -10.181496,0.30167 z"
       id="path6372"
       sodipodi:nodetypes="ccccc" /><path
       style="opacity:1;fill:#b10000;fill-opacity:0.321569;stroke:none;stroke-width:0.565447;stroke-linecap:round;stroke-dasharray:none;stroke-opacity:1"
       d="m 113.72041,234.85307 8.61894,-0.0156 -0.0152,-1.09167 -8.69522,0.0267 z"
       id="path6579"
       sodipodi:nodetypes="ccccc" /></g><g
     inkscape:groupmode="layer"
     id="layer5"
     inkscape:label="nose"
     style="display:none"
     transform="translate(-49.971902,-28.846966)"><path
       style="opacity:1;fill:#ffaaaa;fill-opacity:1;stroke:none;stroke-width:1.8521;stroke-dasharray:none;stroke-opacity:1"
       d="m 91.983961,86.608588 c 0,0 -3.447521,7.40461 -4.508297,11.449723 -0.694099,2.646849 -1.307439,4.800879 4.773491,5.759129 4.054774,0.63896 8.097935,0.78774 10.746425,0.0301 1.89851,-0.54311 2.51381,-1.04444 3.09554,-1.53836 1.43553,-1.21884 1.66013,-4.007206 -0.18447,-7.61036 -1.79007,-3.496621 -7.057202,-14.069546 -9.0166,-14.946345 -1.7025,-0.761837 -4.906089,6.856123 -4.906089,6.856123 z"
       id="path5990"
       sodipodi:nodetypes="csssssscc" /></g><g
     inkscape:groupmode="layer"
     id="layer7"
     inkscape:label="mouth"
     style="display:none"
     transform="translate(-49.971902,-28.846966)"><path
       style="display:none;opacity:1;fill:#000000;fill-opacity:1;stroke:none;stroke-width:1.28264;stroke-dasharray:none;stroke-opacity:1"
       d="m 92.092877,115.67038 c 6.35755,0.85326 10.331033,0.53329 15.695223,-2.02649 3.15978,-1.50784 4.37082,-1.75985 4.37082,-1.75985 0,0 -2.71518,2.34648 -4.03969,2.82643 -2.94996,1.06893 -8.462033,2.36273 -11.787975,2.07983 -3.182169,-0.27068 -8.915109,-1.63311 -10.46348,-2.82644"
       id="path2899"
       sodipodi:nodetypes="cscssc"
       inkscape:label="mouth1" /><g
       id="g17008"
       inkscape:label="mouth2"
       style="display:inline"><path
         id="rect17010"
         style="display:inline;fill:#ffffff;stroke-width:1.04465"
         d="m 95.363965,116.37027 h 5.005185 c 1.36122,0 2.45709,-0.6416 2.45709,0.14714 v 3.51067 c 0,1.12811 -1.09587,2.0363 -2.45709,2.0363 h -5.050686 c -1.361227,0 -2.45709,-0.90819 -2.45709,-2.0363 v -3.51067 c 0,-0.6379 1.141364,-0.14714 2.502591,-0.14714 z"
         sodipodi:nodetypes="sssssssss" /><path
         style="display:inline;fill:#ffffff;fill-opacity:1;stroke:#000000;stroke-width:0.2;stroke-dasharray:none;stroke-opacity:1"
         d="m 97.616734,116.71756 0.03124,3.58866"
         id="path17139"
         sodipodi:nodetypes="cc" /><path
         style="opacity:1;fill:#000000;fill-opacity:1;stroke:none;stroke-width:1.28264;stroke-dasharray:none;stroke-opacity:1"
         d="m 92.092877,115.67038 c 6.35755,0.85326 10.331033,0.53329 15.695223,-2.02649 3.15978,-1.50784 4.37082,-1.75985 4.37082,-1.75985 0,0 -2.71518,2.34648 -4.03969,2.82643 -2.94996,1.06893 -8.462033,2.36273 -11.787975,2.07983 -3.182169,-0.27068 -8.915109,-1.63311 -10.46348,-2.82644"
         id="path17005"
         sodipodi:nodetypes="cscssc"
         inkscape:label="mouth1" /></g><g
       id="g18256"
       inkscape:label="mouth3"
       style="display:none"><path
         id="path18258"
         style="display:inline;fill:#ea2c00;fill-opacity:1;stroke:#000000;stroke-width:0.813791"
         d="m 113.16545,114.23759 c 0.33253,6.21645 -6.14978,11.61705 -14.478633,12.06256 -8.328844,0.44551 -15.350267,-4.23277 -15.682779,-10.44922 -0.332516,-6.21644 6.954427,0.15713 15.283265,-0.28838 8.328837,-0.44551 14.545627,-7.5414 14.878147,-1.32496 z"
         sodipodi:nodetypes="sssss" /><path
         id="path19039"
         style="display:inline;fill:#ff6949;fill-opacity:1;stroke:#000000;stroke-width:0.700002"
         d="m 88.374085,123.66036 c 4.214412,-4.42276 6.971382,-3.97371 8.938199,-3.92567 4.901336,0.11971 7.776396,5.18342 7.776396,5.18342 -3.77137,1.98347 -13.542012,1.93038 -16.714595,-1.25775 z"
         sodipodi:nodetypes="cscc" /></g><g
       id="g19730"
       inkscape:label="mouth4"
       transform="rotate(179.34727,98.085215,119.01095)"
       style="display:none"><path
         id="path19726"
         style="display:inline;fill:#ea2c00;fill-opacity:1;stroke:#000000;stroke-width:0.813791"
         d="m 113.16545,114.23759 c 0.33253,6.21645 -6.14978,11.61705 -14.478633,12.06256 -8.328844,0.44551 -15.350267,-4.23277 -15.682779,-10.44922 -0.332516,-6.21644 6.954427,0.15713 15.283265,-0.28838 8.328837,-0.44551 14.545627,-7.5414 14.878147,-1.32496 z"
         sodipodi:nodetypes="sssss" /><path
         id="path19728"
         style="display:inline;fill:#ff6949;fill-opacity:1;stroke:#000000;stroke-width:0.700002"
         d="m 97.873119,119.52152 c -4.89509,0.2748 -7.924269,-2.76609 -8.462378,-5.18577 4.885463,0.71357 9.433251,2.52372 16.504959,-0.73442 -1.63025,3.5658 -3.093,5.90742 -8.042581,5.92019 z"
         sodipodi:nodetypes="cccc" /></g></g><g
     inkscape:groupmode="layer"
     id="g3228"
     inkscape:label="right arm"
     style="display:none"
     transform="translate(-49.971902,-28.846966)"><g
       id="g3226"
       inkscape:label="hand" /></g><g
     inkscape:groupmode="layer"
     id="layer8"
     inkscape:label="hair"
     style="display:none"
     transform="translate(-49.971902,-28.846966)"><g
       id="g3342"
       inkscape:label="hair2"
       style="display:none"><path
         style="fill:#fff6d5;fill-opacity:1;stroke:none;stroke-width:1.151;stroke-opacity:1"
         d="m 154.2178,67.549056 0.2392,5.36765 c -1.33322,-0.266645 -4.41845,-0.283375 -4.41845,-0.283375 z"
         id="path3325"
         sodipodi:nodetypes="cccc" /><path
         style="display:inline;fill:#fff6d5;fill-opacity:1;stroke:none;stroke-width:1.151;stroke-opacity:1"
         d="m 57.921373,102.11659 1.508369,31.0724 2.413391,-1.20669 1.282113,1.43295 4.9022,8.97479 0.603348,-0.60334 -3.92176,-7.54185 c 0,0 -1.018149,-2.60194 -0.527929,-2.8659 l 2.94132,-1.35753 c 1.206696,-0.33939 4.675945,8.29603 4.675945,8.29603 l 1.998588,4.07259 0.980441,1.92318 2.601935,-1.92318 c 1.244405,-0.37709 3.280703,-0.64106 3.280703,-0.64106 0.414801,0.18855 1.018151,1.35754 1.018151,1.35754 l 0.527929,1.6215 c 0,0 -1.998591,0.94273 -2.865903,1.73462 l -1.659204,1.65921 c 0,0 -0.49022,0.52793 -0.829603,0.98044 0,0 0.377091,3.99717 -1.734625,5.80722 -2.111717,1.81004 8.662921,6.99703 8.662921,6.99703 l 0.106659,-0.53329 c 0,0 2.90691,-7.3351 8.052662,-11.94567 4.252264,-3.81001 6.826102,-4.15965 6.826102,-4.15965 L 98.498481,140.415 c 0,0 -11.359057,-1.54654 -17.758526,-5.49288 -6.399466,-3.94634 -12.798935,-10.34581 -16.211986,-18.02517 -3.413048,-7.67936 -2.346471,-12.15899 -2.346471,-12.15899 z"
         id="path3317"
         sodipodi:nodetypes="cccccccccccccccccccsccsccsscc" /><path
         style="display:inline;fill:#fff6d5;fill-opacity:1;stroke:none;stroke-width:1.151;stroke-opacity:1"
         d="m 59.769126,156.71955 c 0,0 -0.226461,8.40772 0.188547,11.31277 1.282113,8.97479 6.410568,13.57532 9.955233,13.65074 3.544668,0.0754 14.027836,-0.45251 14.027836,-0.45251 L 66.443658,159.73629 c 0,0 -2.677353,0.60334 -6.674532,-3.01674 z"
         id="path3321"
         sodipodi:nodetypes="cssccc" /><path
         style="display:inline;fill:#fff6d5;fill-opacity:1;stroke:none;stroke-width:1.151;stroke-opacity:1"
         d="m 100.47164,38.930097 c 6.0795,2.559788 21.92957,6.68548 32.46058,17.122748 11.16367,11.064292 9.5626,27.566872 9.5626,27.566872 l -1.27989,34.557133 c 0,0 -0.22455,2.75978 0.53329,2.13315 5.18335,-4.28591 4.07933,-29.393584 4.47962,-40.529963 0.26507,-7.37455 1.41595,-7.077736 3.37386,-7.084894 2.71923,-0.0099 5.37263,1.06496 4.73268,-4.694562 -0.46004,-4.14041 -3.27061,-25.787807 -10.63613,-30.705717 -6.25031,-4.173293 -15.78609,-8.106286 -22.19671,-8.357142 -30.80035,-1.205258 -21.0299,9.992375 -21.0299,9.992375 z"
         id="path3323"
         sodipodi:nodetypes="csccssssssc" /><path
         style="display:inline;fill:#fff6d5;fill-opacity:1;stroke:none;stroke-width:1.151;stroke-opacity:1"
         d="m 152.64695,105.28416 c 0,0 0.60335,62.74816 -1.81004,69.98833 -2.41339,7.24017 -18.70378,7.31559 -18.70378,7.31559 -0.22625,-4.37427 -1.03834,-10.55858 -1.74377,-13.61114 0,0 0.70546,0.0297 1.57442,0.0427 -0.13216,-1.19763 -0.81109,-3.70236 -0.81109,-3.70236 0,0 -1.98287,-6.47916 -9.9839,-13.89989 -3.01812,-2.79923 -5.52302,-4.29459 -11.09366,-6.30768 -0.0775,-2.08168 -0.11959,-4.57844 -0.11959,-4.57844 22.92721,-3.46925 34.16913,-16.5433 35.14957,-36.68003 0.98044,-20.136724 7.54184,1.43295 7.54184,1.43295 z"
         id="path3327"
         sodipodi:nodetypes="cscccccccscc" /><path
         style="display:inline;fill:#fff6d5;fill-opacity:1;stroke:none;stroke-width:1.151;stroke-opacity:1"
         d="m 97.271913,30.717447 c 0,0 -24.531293,-4.052996 -32.850599,11.945673 -8.31931,15.998672 -7.519377,29.970842 -7.626035,33.010589 0,0 1.866512,-1.599866 3.679694,-2.133156 2.979716,-0.876388 3.466379,-1.493208 3.466379,-1.493208 0,0 -0.97665,-11.198038 13.705529,-21.180993 12.579046,-8.552958 21.971502,-10.976334 23.038079,-14.176067 1.06658,-3.199734 0,-5.119575 -3.413047,-5.972838 z"
         id="path3014"
         sodipodi:nodetypes="cscscssc" /><path
         style="display:inline;fill:#fff6d5;fill-opacity:1;stroke:none;stroke-width:1.151;stroke-opacity:1"
         d="m 63.932202,71.624504 1.342373,58.711326 c 0,0 -2.133155,0.42664 -2.773103,-2.13315 -0.639947,-2.55979 -1.066577,-12.79894 -1.91984,-18.98509 -0.853263,-6.18615 0.42663,-37.756863 0.42663,-37.756863 z"
         id="path3142"
         sodipodi:nodetypes="ccsscc" /><path
         style="display:inline;fill:#fff6d5;fill-opacity:1;stroke:none;stroke-width:1.151;stroke-opacity:1"
         d="m 59.882253,137.03533 -0.03771,2.79049 3.582376,5.54325 0.905021,-0.56564 z"
         id="path3319"
         sodipodi:nodetypes="ccccc" /></g><path
       style="display:none;opacity:1;fill:#000000;fill-opacity:1;stroke:none;stroke-width:1.17162;stroke-dasharray:none;stroke-opacity:1"
       d="m 62.663859,54.402995 c 0,0 -1.924494,-0.715363 -3.250648,-3.061837 -1.326153,-2.34647 -2.43128,-3.413048 -1.768205,-4.692943 0.663077,-1.279893 2.210259,-1.919841 2.210259,-1.919841 0,0 -1.326157,-3.626363 0.221025,-3.83968 1.547178,-0.213316 4.641537,-1.279893 4.641537,-1.279893 0,0 2.431284,-5.332892 3.978463,-5.546207 1.54718,-0.213315 3.978462,0.853263 3.978462,0.853263 0,0 7.072821,-6.826099 9.72513,-5.546206 2.652309,1.279895 3.315385,2.133158 3.315385,2.133158 0,0 3.978463,-5.546206 7.7359,-5.332891 3.757438,0.213315 1.547181,2.133155 3.094359,2.559788 1.547179,0.42663 5.746674,-4.052999 8.620004,-3.199736 2.87333,0.853263 0.44205,2.133158 1.76821,2.559788 1.32615,0.42663 5.08358,-2.559788 7.73589,-1.91984 2.65231,0.639947 7.51487,2.133155 9.50411,2.133155 1.98923,0 2.43128,2.986418 5.74666,1.49321 3.31539,-1.49321 2.43128,2.346471 4.86257,2.133156 2.43128,-0.213315 4.19949,0.853263 5.74667,0.213315 1.54718,-0.639945 1.98924,-0.853263 3.31538,2.559788 1.32616,3.413048 0.66308,0.213315 3.75745,2.133156 3.09436,1.91984 4.19948,1.706525 4.86256,4.052996 0.66308,2.346473 -1.85976,32.201336 -1.85976,32.201336 0,0 -7.76501,-0.614066 -11.30143,4.718825 -0.48878,5.709981 -4.83345,3.641524 -4.83345,3.641524 l 0.19651,-15.229071 c 0,0 0.32599,-4.682224 -5.18854,-4.682224 -1.29473,-6.033477 -0.58264,-16.496096 -0.58264,-16.496096 l -58.040503,0.02366 c 0,0 -7.312263,4.86744 -8.191358,9.336347 z"
       id="path2902"
       sodipodi:nodetypes="csscscscscsssssssssssscccccccc"
       inkscape:label="hair1" /><path
       style="display:none;fill:#000000;fill-opacity:1;stroke:none;stroke-width:0.700002;stroke-dasharray:none;stroke-opacity:1"
       d="m 59.357743,56.15142 c 0,0 -0.426633,-19.838392 41.383317,-20.904972 41.80994,-1.066581 44.58305,13.225595 44.58305,13.225595 0,0 10.1431,4.296619 7.25275,17.491918 -1.02221,4.666692 -2.86146,6.600966 -2.86146,6.600966 0,0 -1.35421,0.150838 -3.08662,0.664719 -1.47473,0.437449 -3.0112,5.746593 -4.71772,17.052345 C 140.20453,101.58774 138.498,59.564478 138.498,59.564478 l -76.266961,-0.07542 -0.03771,21.494274 c 0,0 -1.555691,0.339384 -2.195639,-5.42015 -0.639948,-5.759533 0.853264,-15.785389 0.853264,-15.785389 0,0 -1.06658,-0.213316 -1.493212,-3.626374 z"
       id="path20463"
       sodipodi:nodetypes="cscscsscccscc"
       inkscape:label="hair3" /><g
       id="g22587"
       inkscape:label="hair5"
       style="display:inline"><ellipse
         style="display:none;fill:#444444;fill-opacity:1;stroke:none;stroke-width:0.700002;stroke-dasharray:none;stroke-opacity:1"
         id="path23066"
         cx="150.23038"
         cy="44.845669"
         rx="15.14544"
         ry="15.358756" /><path
         style="display:none;fill:#444444;fill-opacity:1;stroke:none;stroke-width:0.700002;stroke-dasharray:none;stroke-opacity:1"
         d="m 153.43012,60.204427 c 0,0 1.70653,7.892694 6.18617,6.826114 4.47964,-1.06658 0,4.26632 -4.47964,3.626371 -4.47963,-0.639947 -7.67938,-9.812538 -7.67938,-9.812538 z"
         id="path23071" /><path
         style="display:none;fill:#444444;fill-opacity:1;stroke:none;stroke-width:0.700002;stroke-dasharray:none;stroke-opacity:1"
         d="m 62.519517,54.962451 c 0,0 -6.515381,4.770395 -9.157849,0.999171 -2.642467,-3.771224 -2.831903,3.190896 0.943327,5.685761 3.77522,2.49486 12.256992,-2.241633 12.256992,-2.241633 z"
         id="path23073" /><ellipse
         style="display:none;fill:#444444;fill-opacity:1;stroke:none;stroke-width:0.700002;stroke-dasharray:none;stroke-opacity:1"
         id="ellipse23069"
         cx="68.103699"
         cy="45.058987"
         rx="15.14544"
         ry="15.358756" /><path
         style="fill:#000000;fill-opacity:1;stroke:none;stroke-width:0.700002;stroke-dasharray:none;stroke-opacity:1"
         d="m 57.011266,64.470748 c -0.213316,-8.10601 2.13316,-16.212021 7.03943,-21.544922 4.73095,-5.142337 12.374462,-11.996104 29.864246,-12.585647 18.985128,-0.639949 29.437618,1.279896 37.116988,3.626372 7.67938,2.346477 20.71097,11.088394 22.39819,19.198445 1.87914,9.032565 -2.55979,19.41176 -2.55979,19.41176 l -4.05301,0.426634 c 0,0 -3.41305,3.413057 -4.26631,14.07886 0,0 -4.58063,-11.298973 -2.02084,-25.591148 0,0 0.75869,-0.647925 -1.40144,-1.238787 -1.48663,-0.406638 -4.43511,-1.421412 -9.64416,0.385551 -7.38813,2.562856 -33.229833,3.542159 -34.569217,3.419391 -1.531828,-0.140406 21.390827,-3.832845 22.902117,-5.19483 -5.98908,1.803824 -15.96159,2.664401 -26.675325,5.022653 -7.336935,1.614968 -16.163365,3.13996 -26.698594,2.692026 5.183209,-1.554851 10.707566,-2.560406 12.0089,-4.758388 -3.177169,2.224731 -10.989623,4.173658 -14.302093,4.652206 l -0.02091,20.229818 C 58.503076,75.181675 57.011266,64.470748 57.011266,64.470748 Z"
         id="path20880"
         sodipodi:nodetypes="cssssccccssscsccccc" /></g><g
       id="g23449"
       inkscape:label="hair6"
       style="display:none"><path
         style="fill:#000000;fill-opacity:1;stroke:none;stroke-width:0.700002;stroke-dasharray:none;stroke-opacity:1"
         d="m 57.011266,64.470748 c -0.213316,-8.10601 2.13316,-16.212021 7.03943,-21.544922 4.73095,-5.142337 12.374462,-11.996104 29.864246,-12.585647 18.985128,-0.639949 29.437618,1.279896 37.116988,3.626372 7.67938,2.346477 20.71097,11.088394 22.39819,19.198445 1.87914,9.032565 -2.55979,19.41176 -2.55979,19.41176 l -4.05301,0.426634 c 0,0 -3.41305,3.413057 -4.26631,14.07886 0,0 -4.58063,-11.298973 -2.02084,-25.591148 -7.27972,-2.179184 -16.66697,-2.275216 -22.7127,-2.628675 -15.90934,-1.168505 -55.662524,-4.626528 -55.667112,7.608497 l -0.02091,20.229818 C 58.503076,75.181675 57.011266,64.470748 57.011266,64.470748 Z"
         id="path23447"
         sodipodi:nodetypes="csssscccccccc" /><path
         style="fill:#000000;fill-opacity:1;stroke:none;stroke-width:0.749921;stroke-dasharray:none;stroke-opacity:1"
         d="m 60.762729,57.361604 c 0,0 -3.917668,4.862036 -5.185915,8.208975 -1.268245,3.346938 11.125497,-3.129469 11.125497,-3.129469 z"
         id="path23583" /><path
         style="fill:#000000;fill-opacity:1;stroke:none;stroke-width:2.00225;stroke-dasharray:none;stroke-opacity:1"
         d="m 87.942094,51.550122 c 0,0 2.961328,13.577594 8.143652,20.617828 5.182324,7.040234 17.027644,-22.629327 17.027644,-22.629327 z"
         id="path23585" /><path
         style="fill:#000000;fill-opacity:1;stroke:none;stroke-width:2.00225;stroke-dasharray:none;stroke-opacity:1"
         d="m 72.512911,47.266986 c 0,0 0.125429,13.896215 3.760395,21.846587 3.634965,7.950371 21.291051,-18.674 21.291051,-18.674 z"
         id="path23587" /><path
         style="fill:#000000;fill-opacity:1;stroke:none;stroke-width:2.00225;stroke-dasharray:none;stroke-opacity:1"
         d="m 64.10066,48.958258 c 0,0 -5.920386,12.572572 -6.097749,21.312705 -0.177363,8.740133 27.287363,-7.578058 27.287363,-7.578058 z"
         id="path23589" /><path
         style="fill:#000000;fill-opacity:1;stroke:none;stroke-width:2.00225;stroke-dasharray:none;stroke-opacity:1"
         d="m 103.45115,53.311288 c 0,0 5.71597,12.666813 12.24715,18.477583 6.53119,5.810768 11.95791,-25.67169 11.95791,-25.67169 z"
         id="path23591" /><path
         style="fill:#000000;fill-opacity:1;stroke:none;stroke-width:2.07796;stroke-dasharray:none;stroke-opacity:1"
         d="m 118.58035,55.55327 c 0,0 8.23899,11.864699 15.9967,16.563367 7.75771,4.698662 7.26077,-28.527706 7.26077,-28.527706 z"
         id="path23593" /><path
         style="fill:#000000;fill-opacity:1;stroke:none;stroke-width:0.749921;stroke-dasharray:none;stroke-opacity:1"
         d="m 76.912172,35.342859 c 0,0 -5.750192,-2.433683 -9.31664,-2.73518 -3.566446,-0.301496 6.061269,9.840288 6.061269,9.840288 z"
         id="path23599" /><path
         style="fill:#000000;fill-opacity:1;stroke:none;stroke-width:0.749921;stroke-dasharray:none;stroke-opacity:1"
         d="m 72.806961,37.508663 c 0,0 -6.227713,-0.450684 -9.70104,0.413288 -3.473326,0.863971 8.909166,7.36186 8.909166,7.36186 z"
         id="path23601" /></g></g><g
     inkscape:groupmode="layer"
     id="layer1"
     inkscape:label="items"
     style="display:none"><g
       id="g41545"
       inkscape:label="baguette"
       transform="matrix(0.99957863,0.02902685,-0.03784125,1.3031143,6.5703389,-53.027082)"
       style="display:none;fill:none;fill-opacity:1"><path
         style="fill:#e6a957;fill-opacity:1;stroke:none;stroke-width:0.700002;stroke-dasharray:none;stroke-opacity:1"
         d="m 71.772578,169.00552 c 0,0 -37.228521,-1.67046 -37.127926,2.62738 0.100596,4.29784 35.425233,5.18245 35.425233,5.18245 0,0 1.503333,-0.93947 1.66332,-2.1927 l 0.08204,-3.37014 z"
         id="path41542"
         sodipodi:nodetypes="czcccc" /><path
         style="fill:#e6a957;fill-opacity:1;stroke:none;stroke-width:0.521007;stroke-dasharray:none;stroke-opacity:1"
         d="m 96.14921,173.88692 c 0.08714,2.40996 -13.377491,3.03737 -13.377491,3.03737 1.168709,-2.53373 0.737439,-5.15645 0.518387,-7.62887 4.887551,0.3704 12.771968,2.18154 12.859104,4.5915 z"
         id="path41547"
         sodipodi:nodetypes="zccz" /><path
         style="fill:#efc690;fill-opacity:1;stroke:none;stroke-width:0.805295;stroke-dasharray:none;stroke-opacity:1"
         d="m 50.304503,169.54819 c 1.46464,1.06667 4.263986,4.2361 4.635678,5.38568 0.738496,-1.54376 1.275777,-1.92003 0.630208,-3.51917 -0.385797,-0.95566 -2.969491,-1.40708 -5.265886,-1.86651 z"
         id="path42338"
         sodipodi:nodetypes="ccsc" /><path
         style="fill:#efc690;fill-opacity:1;stroke:none;stroke-width:0.805295;stroke-dasharray:none;stroke-opacity:1"
         d="m 58.259562,169.69839 c 1.46464,1.06667 4.263986,4.2361 4.635678,5.38568 0.738496,-1.54376 1.275777,-1.92003 0.630208,-3.51917 -0.385797,-0.95566 -2.969491,-1.40708 -5.265886,-1.86651 z"
         id="path43411"
         sodipodi:nodetypes="ccsc" /><path
         style="fill:#efc690;fill-opacity:1;stroke:none;stroke-width:0.805295;stroke-dasharray:none;stroke-opacity:1"
         d="m 65.676911,169.73779 c 1.46464,1.06667 4.263986,4.2361 4.635678,5.38568 0.738496,-1.54376 1.275777,-1.92003 0.630208,-3.51917 -0.385797,-0.95566 -2.969491,-1.40708 -5.265886,-1.86651 z"
         id="path43413"
         sodipodi:nodetypes="ccsc" /><path
         style="fill:#efc690;fill-opacity:1;stroke:none;stroke-width:0.805295;stroke-dasharray:none;stroke-opacity:1"
         d="m 83.552762,173.04379 c 0.868931,1.01579 1.593353,2.01771 1.769925,2.56382 0.738496,-1.54376 1.275776,-1.92003 0.630208,-3.51917 -0.221866,-0.54959 -1.330549,-0.92885 -2.533538,-1.24233 0.04304,0.37051 0.139679,1.38775 0.133405,2.19768 z"
         id="path43415"
         sodipodi:nodetypes="ccscc" /></g><g
       id="g44219"
       inkscape:label="glasses"
       transform="translate(-2.1166711)"><path
         style="color:#000000;fill:#000000;-inkscape-stroke:none"
         d="m 15.988281,32.84375 c -4.666648,0 -8.4863279,3.81968 -8.4863279,8.486328 v 11.009766 c 0,4.666648 3.8196799,8.486328 8.4863279,8.486328 h 22.47461 c 1.742201,0 3.573757,-0.664353 4.925186,-1.574413 0.455022,-0.802979 0.794811,-1.769656 1.30187,-2.735477 0.445872,-0.890637 1.222266,-2.349589 2.259272,-4.082165 V 41.330078 c 0,-4.666648 -3.81968,-8.486328 -8.486328,-8.486328 z m 0,4 h 22.47461 c 2.519834,0 4.486328,1.966494 4.486328,4.486328 v 11.009766 c 0,2.519834 -1.966494,4.486328 -4.486328,4.486328 h -22.47461 c -2.519834,0 -4.486328,-1.966494 -4.486328,-4.486328 V 41.330078 c 0,-2.519834 1.966494,-4.486328 4.486328,-4.486328 z"
         id="path44237"
         sodipodi:nodetypes="ssssscccssssssssssss" /><rect
         style="fill:none;fill-opacity:1;stroke:#000000;stroke-width:4.00001;stroke-dasharray:none;stroke-opacity:1"
         id="rect43960"
         width="35.446751"
         height="23.983116"
         x="51.836109"
         y="34.843399"
         ry="6.4860015" /><path
         style="fill:#000000;fill-opacity:1;stroke:none;stroke-width:4.00001;stroke-dasharray:none;stroke-opacity:1"
         d="m 88.692227,41.027726 15.385393,-0.113128 c 0,0 2.29085,-0.01885 2.32856,3.148728 -1.23134,-0.284318 -2.05762,-0.318809 -3.31842,-0.367666 -1.26081,-0.04886 -14.320116,0.95216 -14.320116,0.95216 z"
         id="path43962"
         sodipodi:nodetypes="ccczcc" /><path
         style="fill:#000000;fill-opacity:1;stroke:none;stroke-width:6.90497;stroke-dasharray:none;stroke-opacity:1"
         d="m 45.47608,46.080868 c 0,0 2.773874,-2.933013 5.547745,-0.24442 2.773868,2.688595 0,2.199757 0,2.199757 0,0 -4.438196,-1.710921 -5.547745,0.733255 -1.109548,2.444176 0,-2.688592 0,-2.688592 z"
         id="path44221" /></g></g></svg>
